<svg width="740" height="356" viewBox="0 0 740 356" fill="none" xmlns="http://www.w3.org/2000/svg">
<g clip-path="url(#clip0_923_15435)">
<path d="M0 0.799805H739.583V355.8H0V0.799805Z" fill="#F6F6F6"/>
<path d="M387.325 159.721C392.037 135.444 399.441 122.924 413.173 108.161C413.487 107.847 413.621 107.577 413.621 107.353C413.621 106.949 413.307 106.635 412.5 106.68L392.755 107.443C384.588 107.712 382.748 108.52 378.44 113.501H377.812C379.831 104.616 380.504 100.757 380.415 96.8975H423V97.3462C410.749 115.161 402.672 134.277 401.685 159.721H387.325Z" fill="#B79D37"/>
<path d="M343.43 160.618C339.661 160.618 334.904 160.035 328.802 157.836C328.757 152.81 328.667 150.342 326.603 141.412H327.276C334.59 153.349 341.95 155.862 346.213 155.862C356.713 155.862 359.316 146.304 359.091 130.867C359.091 130.194 358.822 129.835 358.418 129.835C358.194 129.835 357.88 130.014 357.566 130.329C353.931 134.188 348.86 136.925 342.847 136.925C332.167 136.925 324 129.476 324 117.898C324 104.526 334.904 96 346.392 96C362.008 96 371.611 109.328 371.611 127.546C371.611 147.381 360.438 160.618 343.43 160.618ZM348.591 131.45C353.123 131.45 356.219 129.207 358.867 126.066C357.925 111.437 353.527 100.173 345.225 100.173C339.392 100.173 335.847 104.436 335.847 113.86C335.847 122.296 340.11 131.45 348.591 131.45Z" fill="#B79D37"/>
<path d="M158.48 189.546H581.098" stroke="#B79D37" stroke-width="0.595"/>
<path d="M629.305 101.679C629.553 100.712 629.896 99.7775 630.33 98.884C630.486 98.5428 630.932 97.9768 630.821 97.8624C630.709 97.748 630.22 97.9748 630.019 98.0892C628.416 99.109 627.124 100.548 626.281 102.251C625.431 103.965 625.059 105.877 625.205 107.785V108.171C625.205 111.214 626.187 112.849 626.386 115.869C626.431 116.283 626.431 116.703 626.386 117.119C626.386 117.119 626.542 117.277 626.609 117.119C626.877 116.597 627.143 116.37 627.433 115.847C627.733 115.328 627.979 114.782 628.169 114.21C628.364 113.644 628.506 113.058 628.593 112.463C628.766 111.565 628.841 110.652 628.816 109.739C629.015 108.694 628.816 107.467 628.816 106.15C628.816 104.645 628.981 103.146 629.305 101.677V101.679ZM637.888 121.223C638 121.722 638.067 121.995 638.199 122.472C638.385 123.344 638.669 124.188 639.048 124.992C639.048 125.15 639.247 125.197 639.27 124.992C639.14 123.342 639.184 121.683 639.403 120.042C639.63 118.779 639.997 117.546 640.495 116.364C640.608 116.47 640.692 116.601 640.74 116.75C641.381 118.387 641.801 120.107 641.988 121.858C642.379 124.625 642.174 127.443 641.387 130.124C641.387 130.398 641.542 130.489 641.787 130.238C643.266 128.473 644.257 126.352 644.662 124.085C645.152 121.948 645.152 119.728 644.662 117.591C643.926 115.364 643.353 113.088 642.947 110.779C642.748 109.059 642.876 107.317 643.325 105.645V105.418C643.325 105.351 642.657 105.692 642.568 105.759C641.078 107.01 639.871 108.563 639.026 110.315C638.176 112.078 637.706 114 637.643 115.956C637.419 117.712 637.501 119.495 637.888 121.223Z" fill="#B79D37"/>
<path d="M640.041 134.398C639.039 132.13 637.947 129.858 636.923 127.586C634.649 123.13 633.414 118.215 633.312 113.213V112.826C632.576 113.167 632.198 113.85 631.553 114.552C626.317 120.275 626.516 125.906 625.492 133.627C625.336 134.899 625.336 135.897 625.157 136.897C624.52 136.205 623.741 135.66 622.873 135.298C622.01 134.938 621.078 134.771 620.144 134.809C620.144 134.972 620.199 135.134 620.299 135.262C621.146 136.887 621.656 138.666 621.797 140.492C621.939 142.319 621.71 144.155 621.124 145.89C620.635 147.819 619.877 149.638 619.209 151.498C618.739 152.77 618.183 153.951 617.804 155.223C616.871 158.162 616.375 161.222 616.333 164.305C616.175 168.542 617.335 172.723 619.654 176.273C620.256 177.203 620.968 178.067 621.658 178.975C622.595 179.894 623.671 180.66 624.845 181.245C625.358 181.59 625.95 181.793 626.561 181.836C625.321 179.558 624.449 177.098 623.976 174.547C623.141 169.386 624.342 164.094 627.318 159.832C629.145 157.578 630.645 155.078 631.776 152.407C632.442 155.727 633.726 158.893 635.562 161.739C636.075 162.806 636.878 163.646 637.302 164.737C638.841 167.193 639.941 169.898 640.554 172.73C641.105 175.707 640.601 178.783 639.128 181.428C639.128 181.564 639.128 181.428 639.308 181.586C642.126 180.931 644.602 179.257 646.26 176.886C649.358 172.453 650.75 167.05 650.181 161.672C650.181 159.536 650.046 157.424 650.181 155.314C650.314 152.566 650.893 149.858 651.896 147.297C651.896 147.297 651.784 147.115 651.719 147.094C650.255 147.461 648.892 148.151 647.729 149.113C646.468 150.057 645.37 151.2 644.477 152.497C644.313 146.216 642.8 140.044 640.041 134.398ZM646.26 156.789C647.127 160.319 647.37 163.982 646.972 167.597C646.774 169.432 646.34 171.234 645.68 172.957C645.106 174.483 644.269 175.897 643.207 177.134H643.073C643.811 171.949 642.989 166.661 640.71 161.944C639.2 159.026 637.933 155.987 636.923 152.86C636.41 150.862 635.876 148.886 635.474 146.888C634.935 144.36 633.753 142.014 632.042 140.076H631.776C631.739 142.344 631.231 144.579 630.283 146.64C629.934 147.579 629.518 148.49 629.034 149.364C628.543 150.271 628.188 150.724 627.63 151.634L627.208 152.271C626.314 153.604 625.517 155 624.824 156.448C624.041 157.903 623.384 159.422 622.861 160.99C621.231 165.404 620.952 170.203 622.061 174.776C622.279 175.359 622.429 175.969 622.506 176.59C621.863 175.617 621.318 174.582 620.879 173.502C619.232 169.133 619.083 164.34 620.455 159.877C621.658 156.268 623.264 153.065 624.644 149.705C625.755 147.252 626.693 144.726 627.453 142.143C629.108 136.691 630.374 131.129 631.241 125.498C631.897 129.137 633.012 132.678 634.56 136.035C635.497 138.009 636.499 139.826 637.391 141.916C638.282 144.005 639.018 145.707 639.797 147.523C641.523 151.63 642.634 155.969 643.094 160.4H643.339C643.72 159.923 643.919 159.333 644.297 158.811C644.861 158.051 645.52 157.371 646.26 156.789Z" fill="#B79D37"/>
<path d="M634.551 181.678C635.107 181.678 635.354 181.201 635.776 180.79C636.137 180.428 636.438 180.005 636.667 179.544C637.541 177.948 637.833 176.091 637.491 174.298C637.44 173.629 637.321 172.967 637.136 172.322C636.579 170.45 635.712 168.685 634.573 167.099C633.415 165.123 632.344 164.352 631.833 162.194C631.833 161.762 631.675 161.082 631.675 161.082C631.675 161.082 631.498 161.082 631.409 161.24C629.638 162.938 628.309 165.044 627.538 167.373C626.76 169.713 626.56 172.205 626.952 174.639C627.262 176.152 627.723 177.629 628.334 179.043C628.803 180.139 629.576 181.077 630.563 181.745C630.563 181.587 630.875 181.496 630.695 181.291C630.097 179.886 629.743 178.388 629.648 176.864C629.591 174.728 630.173 172.625 631.32 170.823C631.433 170.64 631.585 170.485 631.766 170.369C632.206 171.959 632.843 173.485 633.659 174.911C634.042 175.736 634.35 176.594 634.573 177.475C634.778 178.509 634.815 179.566 634.685 180.611C634.573 180.954 634.527 181.319 634.551 181.678ZM622.14 184.678C623.399 185.18 624.544 185.933 625.504 186.891C626.471 187.854 627.236 189 627.755 190.263C630.624 190.048 633.508 190.048 636.377 190.263C637.863 187.722 640.118 185.719 642.816 184.544C641.724 183.791 640.444 183.358 639.119 183.293C634.872 182.476 630.508 182.476 626.262 183.293C624.702 183.611 622.986 183.701 622.14 184.678ZM628.147 202.386C628.078 204.061 628.121 205.737 628.281 207.406C630.934 207.958 633.642 208.194 636.348 208.11V202.386C639.691 202.751 643.501 201.911 642.631 198.345C642.142 196.278 639.065 196.075 636.482 196.393C636.322 195.051 636.277 193.699 636.348 192.35H628.147V196.164C625.207 196.302 622.11 196.164 621.864 198.959C621.619 201.751 624.627 202.706 628.147 202.386ZM110.279 101.679C110.031 100.715 109.688 99.779 109.253 98.884C109.098 98.5428 108.652 97.9768 108.764 97.8624C108.875 97.748 109.366 97.9748 109.567 98.0892C111.169 99.109 112.462 100.548 113.304 102.251C114.152 103.961 114.525 105.876 114.379 107.785V108.171C114.379 111.214 113.399 112.849 113.198 115.869C113.154 116.283 113.154 116.703 113.198 117.119C113.198 117.119 113.042 117.277 112.975 117.119C112.709 116.597 112.442 116.37 112.151 115.847C111.851 115.327 111.605 114.779 111.415 114.21C111.22 113.642 111.078 113.057 110.993 112.463C110.819 111.566 110.744 110.652 110.77 109.739C110.569 108.694 110.77 107.467 110.77 106.15C110.77 104.645 110.604 103.146 110.279 101.677V101.679ZM101.696 121.223C101.585 121.722 101.518 121.995 101.384 122.472C101.201 123.344 100.917 124.188 100.536 124.992C100.536 125.15 100.339 125.197 100.315 124.992C100.445 123.344 100.4 121.683 100.181 120.042C99.954 118.779 99.5875 117.546 99.0886 116.364C98.9762 116.47 98.8922 116.603 98.844 116.75C98.205 118.387 97.7849 120.107 97.5956 121.858C97.2056 124.625 97.4114 127.443 98.1991 130.124C98.1991 130.398 98.0413 130.489 97.7968 130.238C96.3182 128.473 95.3275 126.352 94.9232 124.085C94.4331 121.948 94.4331 119.728 94.9232 117.591C95.6589 115.366 96.2308 113.088 96.6391 110.779C96.8363 109.059 96.7081 107.315 96.2584 105.645V105.418C96.2584 105.351 96.929 105.692 97.0177 105.759C98.5068 107.01 99.7134 108.563 100.558 110.315C101.406 112.074 101.879 113.997 101.942 115.956C102.167 117.711 102.084 119.496 101.696 121.223Z" fill="#B79D37"/>
<path d="M99.542 134.398C100.546 132.13 101.637 129.858 102.662 127.586C104.936 123.129 106.17 118.215 106.271 113.213V112.826C107.007 113.167 107.386 113.85 108.032 114.552C113.269 120.275 113.068 125.906 114.093 133.627C114.249 134.899 114.249 135.897 114.428 136.897C115.065 136.206 115.843 135.66 116.71 135.298C117.578 134.937 118.507 134.771 119.44 134.809C119.44 134.973 119.385 135.133 119.284 135.262C118.44 136.888 117.932 138.666 117.79 140.492C117.649 142.318 117.876 144.154 118.46 145.89C118.951 147.819 119.708 149.638 120.377 151.498C120.844 152.77 121.402 153.951 121.781 155.223C122.714 158.162 123.209 161.222 123.25 164.305C123.41 168.542 122.25 172.723 119.931 176.273C119.329 177.203 118.615 178.067 117.925 178.975C116.989 179.894 115.914 180.66 114.74 181.245C114.227 181.59 113.636 181.793 113.024 181.836C114.261 179.562 115.134 177.103 115.608 174.547C116.442 169.386 115.241 164.094 112.265 159.832C110.438 157.578 108.938 155.079 107.808 152.407C107.141 155.727 105.857 158.893 104.021 161.739C103.508 162.806 102.707 163.646 102.283 164.737C100.744 167.193 99.6427 169.898 99.0293 172.73C98.4787 175.707 98.983 178.783 100.455 181.428C100.455 181.564 100.455 181.428 100.278 181.586C97.4593 180.932 94.9828 179.258 93.3256 176.886C90.2269 172.453 88.8339 167.051 89.4029 161.672C89.4029 159.536 89.537 157.424 89.4029 155.314C89.2692 152.566 88.6897 149.858 87.687 147.297C87.687 147.297 87.7994 147.115 87.8645 147.094C89.3259 147.458 90.6887 148.149 91.8543 149.113C93.1157 150.057 94.2149 151.2 95.1085 152.497C95.2742 146.206 96.7868 140.031 99.542 134.398ZM93.3256 156.789C92.456 160.322 92.2144 163.98 92.6117 167.597C92.8089 169.435 93.2447 171.237 93.9054 172.957C94.479 174.484 95.3161 175.897 96.3786 177.134H96.5127C95.7736 171.949 96.5954 166.661 98.8735 161.944C100.384 159.026 101.65 155.987 102.66 152.86C103.173 150.862 103.709 148.886 104.11 146.888C104.649 144.361 105.831 142.015 107.541 140.076H107.81C107.846 142.344 108.355 144.579 109.303 146.64C109.65 147.579 110.068 148.49 110.551 149.364C111.04 150.271 111.397 150.724 111.953 151.634L112.377 152.271C113.271 153.602 114.067 154.998 114.762 156.448C115.543 157.901 116.199 159.422 116.722 160.99C118.353 165.396 118.633 170.202 117.525 174.776C117.306 175.361 117.156 175.97 117.079 176.59C117.722 175.617 118.267 174.582 118.706 173.502C120.353 169.139 120.501 164.337 119.128 159.877C117.925 156.268 116.322 153.065 114.939 149.705C113.83 147.252 112.892 144.726 112.133 142.143C110.477 136.692 109.211 131.129 108.344 125.498C107.687 129.137 106.571 132.677 105.023 136.035C104.088 138.009 103.086 139.826 102.195 141.916C101.303 144.005 100.568 145.707 99.7886 147.523C98.0622 151.63 96.9504 155.969 96.489 160.4H96.2445C95.8658 159.923 95.6647 159.333 95.286 158.811C94.7251 158.053 94.0659 157.373 93.3256 156.789Z" fill="#B79D37"/>
<path d="M105.035 181.678C104.477 181.678 104.232 181.201 103.808 180.79C103.447 180.425 103.146 180.004 102.916 179.544C102.042 177.944 101.751 176.089 102.092 174.298C102.143 173.627 102.264 172.967 102.449 172.322C103.006 170.45 103.873 168.685 105.013 167.099C106.171 165.123 107.242 164.352 107.752 162.194C107.752 161.762 107.908 161.082 107.908 161.082C107.908 161.082 108.086 161.082 108.176 161.24C109.947 162.939 111.276 165.044 112.048 167.373C112.825 169.713 113.025 172.206 112.632 174.639C112.324 176.151 111.861 177.626 111.251 179.043C110.783 180.139 110.009 181.077 109.022 181.745C109.022 181.587 108.711 181.497 108.888 181.291C109.487 179.886 109.841 178.389 109.936 176.864C109.994 174.729 109.412 172.625 108.265 170.823C108.152 170.64 108 170.485 107.819 170.369C107.38 171.956 106.744 173.482 105.926 174.911C105.542 175.736 105.236 176.594 105.011 177.475C104.807 178.508 104.77 179.567 104.901 180.611C105.013 180.954 105.058 181.319 105.035 181.678ZM117.446 184.678C116.186 185.18 115.042 185.933 114.081 186.891C113.114 187.854 112.349 189 111.831 190.263C108.96 190.047 106.077 190.047 103.206 190.263C101.721 187.722 99.4659 185.719 96.7671 184.544C97.8599 183.79 99.1413 183.357 100.467 183.293C104.714 182.476 109.077 182.476 113.324 183.293C114.882 183.611 116.598 183.701 117.446 184.678ZM111.436 202.386C111.507 204.061 111.462 205.737 111.302 207.406C108.65 207.958 105.944 208.194 103.236 208.11V202.386C99.895 202.751 96.0847 201.911 96.9525 198.345C97.4436 196.278 100.518 196.075 103.104 196.393C103.262 195.052 103.307 193.699 103.238 192.35H111.436V196.164C114.379 196.302 117.475 196.164 117.72 198.959C117.967 201.751 114.959 202.706 111.436 202.386Z" fill="#B79D37"/>
<path d="M264.584 236.316C265.117 236.103 265.501 235.788 265.736 235.372C265.981 234.956 266.136 234.375 266.2 233.628C266.264 232.871 266.296 231.703 266.296 230.124V218.46C266.296 217.873 266.243 217.441 266.136 217.164C266.04 216.876 265.837 216.636 265.528 216.444C265.219 216.252 264.691 216.017 263.944 215.74V215.468L270.824 213.868V230.124C270.824 231.703 270.856 232.871 270.92 233.628C270.984 234.375 271.133 234.956 271.368 235.372C271.613 235.788 272.003 236.103 272.536 236.316V236.588H264.584V236.316ZM281.189 236.908C279.344 236.908 277.515 236.604 275.701 235.996C275.701 235.015 275.653 234.151 275.557 233.404C275.472 232.647 275.253 231.42 274.901 229.724H275.141C276.016 231.185 276.843 232.332 277.621 233.164C278.4 233.996 279.131 234.572 279.813 234.892C280.507 235.212 281.216 235.372 281.941 235.372C282.72 235.372 283.413 235.212 284.021 234.892C284.64 234.572 285.12 234.119 285.461 233.532C285.813 232.935 285.989 232.236 285.989 231.436C285.989 230.209 285.643 229.233 284.949 228.508C284.256 227.783 283.205 227.217 281.797 226.812C280.389 226.396 278.464 226.033 276.021 225.724L277.765 214.188H285.109C285.973 214.188 286.64 214.145 287.109 214.06C287.589 213.975 288.256 213.804 289.109 213.548C288.661 215.191 288.453 216.684 288.485 218.028C287.664 217.985 286.629 217.964 285.381 217.964H278.085V221.852L281.157 222.316C284.219 222.753 286.448 223.591 287.845 224.828C289.253 226.055 289.957 227.633 289.957 229.564C289.957 230.993 289.584 232.268 288.837 233.388C288.091 234.497 287.051 235.361 285.717 235.98C284.384 236.599 282.875 236.908 281.189 236.908ZM298.212 236.908C296.75 236.908 295.652 236.492 294.916 235.66C294.19 234.817 293.828 233.649 293.828 232.156L293.844 222.652C293.844 222.492 293.801 222.38 293.716 222.316C293.63 222.241 293.497 222.188 293.316 222.156L291.748 221.836V221.612L297.844 216.476H298.036V221.1L302.692 220.556C302.916 220.524 303.076 220.62 303.172 220.844C303.278 221.057 303.332 221.324 303.332 221.644C303.332 221.964 303.278 222.225 303.172 222.428C303.076 222.631 302.916 222.721 302.692 222.7L298.036 222.14V231.18C298.036 232.204 298.244 232.961 298.66 233.452C299.076 233.932 299.748 234.172 300.676 234.172C301.209 234.172 301.716 234.087 302.196 233.916C302.676 233.735 303.065 233.516 303.364 233.26L303.476 233.356C302.964 234.423 302.254 235.281 301.348 235.932C300.441 236.583 299.396 236.908 298.212 236.908ZM304.555 236.316C304.981 236.103 305.291 235.799 305.483 235.404C305.675 235.009 305.797 234.465 305.851 233.772C305.904 233.079 305.931 232.023 305.931 230.604V218.892C305.931 217.996 305.899 217.351 305.835 216.956C305.781 216.561 305.648 216.055 305.435 215.436L304.955 214.108V214.028C305.851 213.9 306.699 213.724 307.499 213.5C308.309 213.265 309.189 212.961 310.139 212.588H310.331L310.139 216.3V223.084C310.139 223.191 310.16 223.271 310.203 223.324C310.245 223.377 310.299 223.404 310.363 223.404C310.459 223.404 310.597 223.329 310.779 223.18C311.845 222.327 312.795 221.676 313.627 221.228C314.459 220.769 315.301 220.54 316.155 220.54C316.901 220.54 317.552 220.732 318.107 221.116C318.672 221.489 319.109 222.039 319.419 222.764C319.728 223.479 319.883 224.337 319.883 225.34V230.604C319.883 232.023 319.909 233.079 319.963 233.772C320.016 234.465 320.139 235.009 320.331 235.404C320.523 235.799 320.832 236.103 321.259 236.316V236.588H314.299V236.316C314.725 236.103 315.035 235.799 315.227 235.404C315.419 235.009 315.541 234.465 315.595 233.772C315.648 233.079 315.675 232.023 315.675 230.604V226.412C315.675 225.324 315.472 224.561 315.067 224.124C314.661 223.687 314.107 223.468 313.403 223.468C312.869 223.468 312.347 223.543 311.835 223.692C311.333 223.831 310.768 224.055 310.139 224.364V230.604C310.139 232.023 310.165 233.079 310.219 233.772C310.272 234.465 310.395 235.009 310.587 235.404C310.779 235.799 311.088 236.103 311.515 236.316V236.588H304.555V236.316ZM327.627 236.316C328.097 236.103 328.513 235.772 328.875 235.324C329.238 234.876 329.617 234.247 330.011 233.436C330.406 232.615 330.961 231.372 331.675 229.708L336.747 217.836C336.897 217.505 336.971 217.223 336.971 216.988C336.971 216.849 336.934 216.679 336.859 216.476L335.931 214.188H340.875C341.121 214.945 341.553 216.071 342.171 217.564L347.387 229.708C348.123 231.415 348.683 232.668 349.067 233.468C349.462 234.268 349.835 234.892 350.187 235.34C350.55 235.777 350.966 236.103 351.435 236.316V236.588H343.147V236.316C343.563 236.167 343.867 235.969 344.059 235.724C344.262 235.479 344.363 235.159 344.363 234.764C344.363 234.305 344.246 233.713 344.011 232.988C343.777 232.263 343.398 231.276 342.875 230.028L342.203 228.428H333.963L333.339 230.14C332.753 231.772 332.459 232.999 332.459 233.82C332.459 234.524 332.662 235.068 333.067 235.452C333.483 235.825 334.15 236.113 335.067 236.316V236.588H327.627V236.316ZM341.627 227.036L338.203 218.78C338.118 218.577 338.001 218.476 337.851 218.476C337.681 218.476 337.553 218.583 337.467 218.796L334.475 227.036H341.627ZM352.126 242.524C352.553 242.311 352.862 242.007 353.054 241.612C353.246 241.217 353.369 240.673 353.422 239.98C353.476 239.287 353.502 238.231 353.502 236.812V227.02C353.502 226.145 353.47 225.511 353.406 225.116C353.353 224.721 353.214 224.22 352.99 223.612L352.51 222.284V222.204C353.396 222.055 354.217 221.863 354.974 221.628C355.742 221.393 356.564 221.089 357.438 220.716H357.63V222.636C357.63 222.828 357.694 222.924 357.822 222.924C357.94 222.924 358.094 222.828 358.286 222.636C359.684 221.239 361.145 220.54 362.67 220.54C363.694 220.54 364.628 220.839 365.47 221.436C366.313 222.023 366.98 222.871 367.47 223.98C367.961 225.089 368.206 226.385 368.206 227.868C368.206 229.745 367.838 231.367 367.102 232.732C366.366 234.097 365.406 235.137 364.222 235.852C363.049 236.556 361.817 236.908 360.526 236.908C360.046 236.908 359.582 236.871 359.134 236.796C358.697 236.721 358.222 236.615 357.71 236.476V236.812C357.71 238.241 357.742 239.297 357.806 239.98C357.87 240.673 358.014 241.217 358.238 241.612C358.462 242.007 358.83 242.311 359.342 242.524V242.796H352.126V242.524ZM360.414 235.66C361.556 235.66 362.42 235.153 363.006 234.14C363.604 233.127 363.902 231.74 363.902 229.98C363.902 228.604 363.737 227.415 363.406 226.412C363.076 225.409 362.585 224.641 361.934 224.108C361.294 223.564 360.526 223.292 359.63 223.292C359.289 223.292 358.98 223.34 358.702 223.436C358.436 223.532 358.105 223.676 357.71 223.868V232.396C357.71 233.484 357.972 234.3 358.494 234.844C359.017 235.388 359.657 235.66 360.414 235.66ZM370.368 236.316C370.794 236.103 371.104 235.799 371.296 235.404C371.498 234.999 371.626 234.449 371.68 233.756C371.733 233.063 371.76 232.007 371.76 230.588V227.02C371.76 226.156 371.728 225.532 371.664 225.148C371.6 224.753 371.461 224.241 371.248 223.612L370.752 222.284V222.204C371.637 222.055 372.458 221.863 373.216 221.628C373.984 221.393 374.805 221.089 375.68 220.716H375.872V224.412C375.872 224.593 375.936 224.684 376.064 224.684C376.181 224.684 376.293 224.599 376.4 224.428C377.136 223.297 377.909 222.369 378.72 221.644C379.541 220.908 380.261 220.54 380.88 220.54C381.306 220.54 381.621 220.732 381.824 221.116C382.026 221.5 382.128 222.044 382.128 222.748C382.128 223.58 381.989 224.609 381.712 225.836H381.648C381.36 225.377 381.029 225.057 380.656 224.876C380.282 224.695 379.866 224.604 379.408 224.604C378.842 224.604 378.288 224.684 377.744 224.844C377.2 225.004 376.602 225.26 375.952 225.612V230.588C375.952 231.996 375.984 233.052 376.048 233.756C376.122 234.449 376.282 234.999 376.528 235.404C376.773 235.799 377.162 236.103 377.696 236.316V236.588H370.368V236.316ZM383.649 236.316C384.076 236.103 384.385 235.799 384.577 235.404C384.78 235.009 384.908 234.465 384.961 233.772C385.014 233.079 385.041 232.023 385.041 230.604V227.004C385.041 226.108 385.009 225.463 384.945 225.068C384.892 224.673 384.758 224.172 384.545 223.564L384.065 222.236V222.156C384.94 222.028 385.756 221.852 386.513 221.628C387.281 221.393 388.124 221.089 389.041 220.716H389.233V230.604C389.233 232.023 389.26 233.079 389.313 233.772C389.366 234.465 389.489 235.009 389.681 235.404C389.884 235.799 390.198 236.103 390.625 236.316V236.588H383.649V236.316ZM386.881 218.652C386.337 218.652 385.857 218.545 385.441 218.332C385.025 218.119 384.705 217.831 384.481 217.468C384.257 217.095 384.145 216.684 384.145 216.236C384.145 215.788 384.257 215.383 384.481 215.02C384.705 214.657 385.025 214.375 385.441 214.172C385.857 213.959 386.337 213.852 386.881 213.852C387.425 213.852 387.905 213.959 388.321 214.172C388.737 214.375 389.057 214.657 389.281 215.02C389.505 215.383 389.617 215.788 389.617 216.236C389.617 216.695 389.505 217.105 389.281 217.468C389.057 217.831 388.737 218.119 388.321 218.332C387.905 218.545 387.425 218.652 386.881 218.652ZM392.586 236.316C393.012 236.103 393.322 235.799 393.514 235.404C393.706 235.009 393.828 234.465 393.882 233.772C393.935 233.079 393.962 232.023 393.962 230.604V218.892C393.962 217.996 393.93 217.351 393.866 216.956C393.812 216.561 393.679 216.055 393.466 215.436L392.986 214.108V214.028C393.882 213.9 394.73 213.724 395.53 213.5C396.34 213.265 397.22 212.961 398.17 212.588H398.362L398.17 216.3V230.604C398.17 232.023 398.196 233.079 398.25 233.772C398.303 234.465 398.426 235.009 398.618 235.404C398.81 235.799 399.119 236.103 399.546 236.316V236.588H392.586V236.316ZM408.709 236.316C409.242 236.103 409.626 235.788 409.861 235.372C410.106 234.956 410.261 234.375 410.325 233.628C410.389 232.871 410.421 231.703 410.421 230.124V218.46C410.421 217.873 410.368 217.441 410.261 217.164C410.165 216.876 409.962 216.636 409.653 216.444C409.344 216.252 408.816 216.017 408.069 215.74V215.468L414.949 213.868V230.124C414.949 231.703 414.981 232.871 415.045 233.628C415.109 234.375 415.258 234.956 415.493 235.372C415.738 235.788 416.128 236.103 416.661 236.316V236.588H408.709V236.316ZM426.242 236.908C424.6 236.908 422.861 236.577 421.026 235.916C421.016 234.913 420.968 234.06 420.882 233.356C420.797 232.641 420.584 231.543 420.242 230.06H420.482C421.656 231.969 422.829 233.308 424.002 234.076C425.186 234.833 426.264 235.212 427.234 235.212C428.397 235.212 429.314 234.887 429.986 234.236C430.658 233.585 431.133 232.657 431.41 231.452C431.688 230.247 431.826 228.737 431.826 226.924V226.3C431.826 226.183 431.805 226.092 431.762 226.028C431.72 225.964 431.661 225.932 431.586 225.932C431.501 225.932 431.4 225.991 431.282 226.108C430.6 226.833 429.81 227.409 428.914 227.836C428.018 228.252 427.058 228.46 426.034 228.46C424.765 228.46 423.618 228.183 422.594 227.628C421.581 227.063 420.781 226.268 420.194 225.244C419.608 224.209 419.314 223.02 419.314 221.676C419.314 220.14 419.688 218.78 420.434 217.596C421.181 216.412 422.168 215.495 423.394 214.844C424.621 214.193 425.922 213.868 427.298 213.868C429.122 213.868 430.712 214.353 432.066 215.324C433.421 216.284 434.461 217.617 435.186 219.324C435.922 221.02 436.29 222.951 436.29 225.116C436.29 227.452 435.874 229.511 435.042 231.292C434.21 233.073 433.032 234.455 431.506 235.436C429.992 236.417 428.237 236.908 426.242 236.908ZM428.082 226.508C428.84 226.508 429.506 226.343 430.082 226.012C430.669 225.681 431.224 225.207 431.746 224.588C431.629 222.796 431.373 221.207 430.978 219.82C430.584 218.433 430.04 217.345 429.346 216.556C428.653 215.756 427.832 215.356 426.882 215.356C425.816 215.356 424.989 215.761 424.402 216.572C423.826 217.372 423.538 218.593 423.538 220.236C423.538 221.281 423.709 222.284 424.05 223.244C424.402 224.204 424.92 224.988 425.602 225.596C426.296 226.204 427.122 226.508 428.082 226.508ZM447.365 236.908C445.755 236.908 444.331 236.684 443.093 236.236C441.856 235.788 440.896 235.159 440.213 234.348C439.541 233.537 439.205 232.604 439.205 231.548C439.205 230.417 439.627 229.409 440.469 228.524C441.323 227.639 442.469 226.881 443.909 226.252C443.995 226.22 444.053 226.188 444.085 226.156C444.128 226.113 444.149 226.06 444.149 225.996C444.149 225.932 444.128 225.884 444.085 225.852C444.053 225.809 443.979 225.756 443.861 225.692C442.475 224.892 441.483 224.017 440.885 223.068C440.299 222.108 440.005 221.041 440.005 219.868C440.005 218.769 440.347 217.761 441.029 216.844C441.723 215.927 442.699 215.201 443.957 214.668C445.216 214.135 446.667 213.868 448.309 213.868C449.664 213.868 450.88 214.076 451.957 214.492C453.045 214.897 453.899 215.463 454.517 216.188C455.136 216.913 455.445 217.735 455.445 218.652C455.445 219.697 455.056 220.636 454.277 221.468C453.499 222.289 452.517 223.004 451.333 223.612C451.152 223.697 451.061 223.799 451.061 223.916C451.061 223.98 451.077 224.033 451.109 224.076C451.152 224.119 451.221 224.167 451.317 224.22C453.067 225.169 454.357 226.124 455.189 227.084C456.021 228.044 456.437 229.169 456.437 230.46C456.437 231.751 456.032 232.887 455.221 233.868C454.411 234.839 453.312 235.591 451.925 236.124C450.549 236.647 449.029 236.908 447.365 236.908ZM448.085 235.804C449.344 235.804 450.336 235.479 451.061 234.828C451.787 234.167 452.149 233.265 452.149 232.124C452.149 231.505 452.021 230.967 451.765 230.508C451.52 230.049 451.147 229.628 450.645 229.244C450.144 228.86 449.467 228.449 448.613 228.012L445.221 226.284C444.411 227.052 443.856 227.836 443.557 228.636C443.269 229.425 443.125 230.247 443.125 231.1C443.125 232.049 443.339 232.881 443.765 233.596C444.192 234.3 444.779 234.844 445.525 235.228C446.272 235.612 447.125 235.804 448.085 235.804ZM450.133 223.676C450.731 222.919 451.12 222.236 451.301 221.628C451.483 221.02 451.573 220.316 451.573 219.516C451.573 218.503 451.381 217.66 450.997 216.988C450.613 216.305 450.101 215.804 449.461 215.484C448.832 215.153 448.133 214.988 447.365 214.988C446.299 214.988 445.445 215.26 444.805 215.804C444.165 216.348 443.845 217.116 443.845 218.108C443.845 218.951 444.133 219.703 444.709 220.364C445.285 221.015 446.149 221.639 447.301 222.236L450.133 223.676ZM466.18 236.908C464.537 236.908 462.798 236.577 460.964 235.916C460.953 234.913 460.905 234.06 460.82 233.356C460.734 232.641 460.521 231.543 460.18 230.06H460.42C461.593 231.969 462.766 233.308 463.94 234.076C465.124 234.833 466.201 235.212 467.172 235.212C468.334 235.212 469.252 234.887 469.924 234.236C470.596 233.585 471.07 232.657 471.348 231.452C471.625 230.247 471.764 228.737 471.764 226.924V226.3C471.764 226.183 471.742 226.092 471.7 226.028C471.657 225.964 471.598 225.932 471.524 225.932C471.438 225.932 471.337 225.991 471.22 226.108C470.537 226.833 469.748 227.409 468.852 227.836C467.956 228.252 466.996 228.46 465.972 228.46C464.702 228.46 463.556 228.183 462.532 227.628C461.518 227.063 460.718 226.268 460.132 225.244C459.545 224.209 459.252 223.02 459.252 221.676C459.252 220.14 459.625 218.78 460.372 217.596C461.118 216.412 462.105 215.495 463.332 214.844C464.558 214.193 465.86 213.868 467.236 213.868C469.06 213.868 470.649 214.353 472.004 215.324C473.358 216.284 474.398 217.617 475.124 219.324C475.86 221.02 476.228 222.951 476.228 225.116C476.228 227.452 475.812 229.511 474.98 231.292C474.148 233.073 472.969 234.455 471.444 235.436C469.929 236.417 468.174 236.908 466.18 236.908ZM468.02 226.508C468.777 226.508 469.444 226.343 470.02 226.012C470.606 225.681 471.161 225.207 471.684 224.588C471.566 222.796 471.31 221.207 470.916 219.82C470.521 218.433 469.977 217.345 469.284 216.556C468.59 215.756 467.769 215.356 466.82 215.356C465.753 215.356 464.926 215.761 464.34 216.572C463.764 217.372 463.476 218.593 463.476 220.236C463.476 221.281 463.646 222.284 463.988 223.244C464.34 224.204 464.857 224.988 465.54 225.596C466.233 226.204 467.06 226.508 468.02 226.508Z" fill="#B79D37"/>
<path d="M290.89 273.036C290.831 272.96 290.78 272.943 290.737 272.943C290.652 272.943 290.635 272.994 290.635 273.104L290.805 279.02C290.882 281.23 291.086 281.698 292.837 282.157V282.284H289.148V282.157C289.853 281.868 289.989 281.4 290.015 279.02L290.1 272.603C290.1 272.348 290.04 272.186 289.828 271.88C289.471 271.362 289.046 270.877 288.612 270.435V270.384H290.78C291.417 271.294 291.604 271.54 292.089 272.144L297.886 279.403C297.971 279.505 298.022 279.53 298.073 279.53C298.124 279.53 298.2 279.488 298.192 279.369L297.988 273.648C297.911 271.438 297.716 270.971 295.965 270.512V270.384H299.645V270.512C298.94 270.801 298.804 271.268 298.778 273.648L298.719 278.927C298.719 280.066 298.736 281.222 298.804 282.369H298.379L290.89 273.036ZM301.487 282.157C302.184 281.868 302.269 281.366 302.269 278.986V273.682C302.269 271.302 302.184 270.801 301.487 270.512V270.384H307.666L309.213 270.299C309.239 271.234 309.298 271.727 309.706 273.359H309.579C308.525 271.251 307.853 271.013 305.448 271.013C304.98 271.013 304.343 271.047 303.807 271.132V275.11L305.728 275.059C307.165 275.017 307.42 274.872 307.819 273.878H307.93C307.887 274.974 307.938 276.037 308.074 277.133H307.955C307.454 275.875 307.165 275.731 305.745 275.688L303.807 275.637V280.601C303.807 281.375 303.96 281.655 305.533 281.655C308.057 281.655 308.737 281.026 310.225 278.315H310.352C309.553 280.941 309.477 281.434 309.46 282.284H301.487V282.157ZM312.727 273.682C311.665 271.26 311.401 270.801 310.738 270.512V270.384H314.342V270.512C313.076 270.92 313.764 272.382 314.257 273.563L316.892 279.836C316.935 279.938 316.994 279.972 317.062 279.972C317.122 279.972 317.19 279.938 317.224 279.828L319.221 274.303C319.927 272.322 320.445 270.988 318.363 270.512V270.384H322.519V270.512C321.848 270.801 321.584 271.26 320.522 273.682L316.705 282.412H316.552L312.727 273.682ZM323.6 282.157C324.297 281.868 324.382 281.366 324.382 278.986V273.682C324.382 271.302 324.297 270.801 323.6 270.512V270.384H329.78L331.327 270.299C331.352 271.234 331.412 271.727 331.82 273.359H331.692C330.638 271.251 329.967 271.013 327.561 271.013C327.094 271.013 326.456 271.047 325.921 271.132V275.11L327.842 275.059C329.278 275.017 329.533 274.872 329.933 273.878H330.043C330.001 274.974 330.052 276.037 330.188 277.133H330.069C329.567 275.875 329.278 275.731 327.859 275.688L325.921 275.637V280.601C325.921 281.375 326.074 281.655 327.646 281.655C330.171 281.655 330.851 281.026 332.338 278.315H332.466C331.667 280.941 331.59 281.434 331.573 282.284H323.6V282.157ZM333.943 282.157C334.64 281.868 334.725 281.366 334.725 278.986V273.682C334.725 271.302 334.64 270.801 333.943 270.512V270.384H337.921C340.658 270.384 342.494 271.532 342.494 273.793C342.494 275.391 341.364 276.555 340.012 277.125C339.927 277.159 339.893 277.193 339.893 277.244C339.893 277.295 339.927 277.329 340.029 277.371C340.794 277.762 341.211 278.502 341.729 279.896C342.452 281.681 342.749 281.893 343.667 282.157V282.284H342.095C341.236 282.284 340.922 282.225 340.573 281.247L339.834 279.207C339.383 277.941 339.009 277.711 337.513 277.652L336.264 277.609V278.901C336.264 281.341 336.357 281.868 337.046 282.157V282.284H333.943V282.157ZM336.264 277.074L338.312 277.014C339.026 276.997 339.426 276.912 339.842 276.581C340.488 276.105 340.998 275.229 340.998 274.175C340.998 271.795 339.511 271.013 337.564 271.013C337.105 271.013 336.612 271.064 336.264 271.124V277.074ZM348.486 282.157C349.183 281.868 349.268 281.366 349.268 278.986V273.682C349.268 271.302 349.183 270.801 348.486 270.512V270.384H354.496L356.042 270.299C356.068 271.234 356.128 271.727 356.527 273.291H356.408C355.354 271.251 354.683 271.013 352.447 271.013C351.98 271.013 351.342 271.047 350.807 271.132V276.683L352.728 276.632C353.994 276.598 354.249 276.445 354.649 275.45H354.759C354.717 276.547 354.768 277.601 354.904 278.697H354.785C354.351 277.439 353.994 277.295 352.745 277.261L350.807 277.21V278.986C350.807 281.366 350.926 281.868 351.776 282.157V282.284H348.486V282.157ZM363.211 282.454C359.998 282.454 357.423 279.904 357.423 276.334C357.423 272.764 359.998 270.214 363.211 270.214C366.424 270.214 368.991 272.764 368.991 276.334C368.991 279.904 366.424 282.454 363.211 282.454ZM363.56 281.647C365.625 281.647 367.478 280.312 367.478 276.963C367.478 273.648 365.625 271.022 362.863 271.022C360.789 271.022 358.936 272.356 358.936 275.705C358.936 279.02 360.797 281.647 363.56 281.647ZM370.815 282.157C371.512 281.868 371.597 281.366 371.597 278.986V273.682C371.597 271.302 371.512 270.801 370.815 270.512V270.384H374.793C377.53 270.384 379.366 271.532 379.366 273.793C379.366 275.391 378.236 276.555 376.884 277.125C376.799 277.159 376.765 277.193 376.765 277.244C376.765 277.295 376.799 277.329 376.901 277.371C377.666 277.762 378.083 278.502 378.601 279.896C379.324 281.681 379.621 281.893 380.539 282.157V282.284H378.967C378.108 282.284 377.794 282.225 377.445 281.247L376.706 279.207C376.255 277.941 375.881 277.711 374.385 277.652L373.136 277.609V278.901C373.136 281.341 373.229 281.868 373.918 282.157V282.284H370.815V282.157ZM373.136 277.074L375.184 277.014C375.898 276.997 376.298 276.912 376.714 276.581C377.36 276.105 377.87 275.229 377.87 274.175C377.87 271.795 376.383 271.013 374.436 271.013C373.977 271.013 373.484 271.064 373.136 271.124V277.074ZM386.685 282.454C383.744 282.454 381.262 280.159 381.262 276.581C381.262 272.977 383.999 270.214 387.697 270.214C388.538 270.214 389.652 270.359 390.672 270.741C390.68 271.54 390.74 271.94 391.156 274.039H391.029C389.949 271.26 388.436 270.988 387.017 270.988C384.815 270.988 382.656 272.603 382.656 275.841C382.656 279.403 384.917 281.392 387.425 281.392C388.283 281.392 389.048 281.264 389.949 280.805V277.907C389.949 277.745 389.847 277.677 389.686 277.694L386.141 277.966L386.337 277.099H391.513C391.394 277.864 391.377 278.119 391.377 278.706V282.446H391.275L390.213 281.332C390.153 281.264 390.094 281.239 390.017 281.239C389.958 281.239 389.89 281.273 389.822 281.324C388.972 282.055 387.867 282.454 386.685 282.454ZM399.07 282.454C395.857 282.454 393.282 279.904 393.282 276.334C393.282 272.764 395.857 270.214 399.07 270.214C402.283 270.214 404.85 272.764 404.85 276.334C404.85 279.904 402.283 282.454 399.07 282.454ZM399.419 281.647C401.484 281.647 403.337 280.312 403.337 276.963C403.337 273.648 401.484 271.022 398.722 271.022C396.648 271.022 394.795 272.356 394.795 275.705C394.795 279.02 396.656 281.647 399.419 281.647ZM409.455 282.157C410.152 281.868 410.237 281.366 410.237 278.986V271.013H409.812C407.424 271.013 406.795 271.455 405.758 273.648H405.639C406.047 271.795 406.115 271.234 406.14 270.299L407.687 270.384H414.326L415.873 270.299C415.907 271.234 415.966 271.795 416.374 273.648H416.255C415.218 271.455 414.589 271.013 412.201 271.013H411.776V278.986C411.776 281.366 411.861 281.868 412.558 282.157V282.284H409.455V282.157ZM420.894 282.157C421.591 281.868 421.676 281.366 421.676 278.986V271.013H421.251C418.862 271.013 418.233 271.455 417.196 273.648H417.077C417.485 271.795 417.553 271.234 417.579 270.299L419.126 270.384H425.764L427.311 270.299C427.345 271.234 427.405 271.795 427.813 273.648H427.694C426.657 271.455 426.028 271.013 423.639 271.013H423.214V278.986C423.214 281.366 423.299 281.868 423.996 282.157V282.284H420.894V282.157ZM429.153 282.157C429.85 281.868 429.935 281.366 429.935 278.986V273.682C429.935 271.302 429.85 270.801 429.153 270.512V270.384H435.332L436.879 270.299C436.905 271.234 436.964 271.727 437.372 273.359H437.245C436.191 271.251 435.519 271.013 433.114 271.013C432.646 271.013 432.009 271.047 431.473 271.132V275.11L433.394 275.059C434.831 275.017 435.086 274.872 435.485 273.878H435.596C435.553 274.974 435.604 276.037 435.74 277.133H435.621C435.12 275.875 434.831 275.731 433.411 275.688L431.473 275.637V280.601C431.473 281.375 431.626 281.655 433.199 281.655C435.723 281.655 436.403 281.026 437.891 278.315H438.018C437.219 280.941 437.143 281.434 437.126 282.284H429.153V282.157ZM441.4 273.036C441.34 272.96 441.289 272.943 441.247 272.943C441.162 272.943 441.145 272.994 441.145 273.104L441.315 279.02C441.391 281.23 441.595 281.698 443.346 282.157V282.284H439.657V282.157C440.363 281.868 440.499 281.4 440.524 279.02L440.609 272.603C440.609 272.348 440.55 272.186 440.337 271.88C439.98 271.362 439.555 270.877 439.122 270.435V270.384H441.289C441.927 271.294 442.114 271.54 442.598 272.144L448.395 279.403C448.48 279.505 448.531 279.53 448.582 279.53C448.633 279.53 448.71 279.488 448.701 279.369L448.497 273.648C448.421 271.438 448.225 270.971 446.474 270.512V270.384H450.155V270.512C449.449 270.801 449.313 271.268 449.288 273.648L449.228 278.927C449.228 280.066 449.245 281.222 449.313 282.369H448.888L441.4 273.036Z" fill="#0C0C0C"/>
</g>
<defs>
<clipPath id="clip0_923_15435">
<rect width="739.583" height="355" fill="white" transform="translate(0 0.799805)"/>
</clipPath>
</defs>
</svg>
