<svg width="443" height="372" viewBox="0 0 443 372" fill="none" xmlns="http://www.w3.org/2000/svg">
<path d="M73.7597 275.08C74.1097 275.08 74.4197 274.89 74.5597 274.58C94.7197 231.49 123.9 182.51 162.16 142.99C214.28 89.14 260.15 75.29 289.56 74.72C265.73 32.38 241.23 0.71 223.01 0.05H221.69C222.13 0.03 222.57 0.03 223.01 0.05H223.18C222.79 0.03 222.4 0 222 0C201.57 0 181.68 30.22 157.65 74.48C127.72 129.6 96.7897 206.49 72.8397 273.88C72.6297 274.46 73.0997 275.08 73.7497 275.08H73.7597Z" fill="white"/>
<path d="M299.854 93.7398C275.934 91.4198 252.314 100.35 234.484 110.09C287.034 134.32 329.214 182.19 364.054 248.82C364.214 249.13 364.544 249.33 364.904 249.33C365.534 249.33 365.944 248.73 365.724 248.15C343.624 190.34 329.654 151.02 299.854 93.7398Z" fill="white"/>
<path d="M127.652 358.48C127.322 358.04 127.322 357.27 127.642 356.18L139.772 315.12C140.612 312.24 141.852 311.73 144.912 311.73H158.672C160.502 311.73 162.112 310.53 162.642 308.77L165.372 299.62H136.772C128.742 299.62 123.402 303.35 121.312 310.4L109.032 351.88C106.882 359.13 106.982 364.19 109.342 367.35C111.342 370.03 114.882 371.33 120.172 371.33H145.862L149.472 359.23H130.752C129.572 359.23 128.152 359.14 127.662 358.48H127.652Z" fill="white"/>
<path d="M216.669 303.6C214.669 300.93 211.129 299.62 205.849 299.62H184.569C176.539 299.62 171.199 303.35 169.109 310.4L156.829 351.88C154.689 359.14 154.789 364.2 157.139 367.35C159.139 370.03 162.679 371.33 167.969 371.33H189.249C197.269 371.33 202.619 367.6 204.709 360.55L216.979 319.07C219.129 311.82 219.029 306.76 216.669 303.6ZM198.519 314.77L186.379 355.83C185.529 358.73 184.039 359.22 181.009 359.22H178.409C177.229 359.23 175.809 359.14 175.309 358.48C174.989 358.04 174.979 357.27 175.299 356.18L187.429 315.12C188.279 312.22 189.779 311.73 192.809 311.73H195.409C196.589 311.72 198.009 311.81 198.499 312.47C198.829 312.91 198.829 313.68 198.519 314.77Z" fill="white"/>
<path d="M324.545 303.61C322.545 300.93 318.995 299.63 313.715 299.63H283.665C281.835 299.63 280.215 300.84 279.695 302.6L276.995 311.74H303.135C304.315 311.73 305.735 311.82 306.235 312.48C306.555 312.92 306.565 313.69 306.245 314.78L302.405 327.74H284.045C276.025 327.74 270.675 331.47 268.595 338.52L264.645 351.88C262.195 360.13 260.645 371.33 275.775 371.33H309.385L324.855 319.08C326.995 311.83 326.895 306.77 324.545 303.61ZM293.215 359.23H286.215C283.605 359.23 282.305 358.93 283.105 356.19L288.195 339.12C289.045 336.22 290.535 335.73 293.565 335.73H300.175L293.215 359.23Z" fill="white"/>
<path d="M376.325 273.95L368.755 299.62H350.425C342.395 299.62 337.055 303.35 334.965 310.4L322.685 351.88C320.535 359.14 320.645 364.2 322.995 367.35C324.995 370.03 328.535 371.33 333.825 371.33H367.365L392.335 287.08C395.295 277.08 387.915 273.95 376.325 273.95ZM351.235 359.22H344.265C343.085 359.22 341.665 359.14 341.165 358.48C340.845 358.04 340.835 357.27 341.165 356.18L353.295 315.12C354.145 312.22 355.645 311.73 358.665 311.73H365.285L351.245 359.22H351.235Z" fill="white"/>
<path d="M270.089 314.36C275.339 308.01 273.639 299.64 264.909 299.64H231.039C229.209 299.64 227.599 300.84 227.069 302.6L224.339 311.75H249.089C239.439 323.42 218.799 348.4 212.009 356.6C206.759 362.95 208.459 371.33 217.189 371.33H255.489L259.109 359.22H233.029C242.269 348.04 263.139 322.78 270.099 314.36H270.089Z" fill="white"/>
<path d="M96.463 299.62L81.393 350.53C80.903 355.87 85.973 358.15 88.353 358.55L88.113 359.22H86.773H85.603H78.813H72.403H72.123C70.943 359.22 69.523 359.13 69.033 358.47C68.703 358.03 68.703 357.26 69.023 356.17L85.763 299.61H65.883L50.413 351.87C46.763 364.2 49.373 371.32 61.553 371.32H95.093L116.313 299.62H96.453H96.463Z" fill="white"/>
<path d="M21.4812 358.61C21.1612 358.18 21.1512 357.43 21.4412 356.38L41.4712 288.57C44.2512 279.15 38.7212 274.63 24.4612 274.63L1.53118 352.02C-0.608825 359.26 -0.508825 364.32 1.85118 367.48C3.85118 370.16 7.39117 371.46 12.6712 371.46H41.1412L44.7512 359.36H24.5712C23.3912 359.36 21.9812 359.27 21.4812 358.61Z" fill="white"/>
<path d="M429.579 299.63H408.169C400.779 299.63 395.049 303.25 393.089 309.86L380.649 351.88C378.509 359.13 378.609 364.19 380.959 367.34C382.959 370.02 386.499 371.32 391.789 371.32H426.989L430.569 359.21H402.359C401.179 359.22 399.769 359.14 399.269 358.47C398.939 358.04 398.939 357.26 399.259 356.18L403.109 343.18H421.329C429.349 343.18 434.699 339.45 436.789 332.4L440.719 319.08C443.159 310.83 444.709 299.63 429.579 299.63ZM422.389 314.77L417.309 331.8C416.459 334.7 414.969 335.19 411.939 335.19H400.309L400.449 334.73C402.529 334.42 405.869 333.35 406.929 329.79L411.409 314.69C412.009 312.66 413.289 311.73 416.319 311.73H419.279C421.899 311.73 423.189 312.03 422.389 314.77Z" fill="white"/>
<path d="M73.7597 275.08C74.1097 275.08 74.4197 274.89 74.5597 274.58C94.7197 231.49 123.9 182.51 162.16 142.99C214.28 89.14 260.15 75.29 289.56 74.72C265.73 32.38 241.23 0.71 223.01 0.05H221.69C222.13 0.03 222.57 0.03 223.01 0.05H223.18C222.79 0.03 222.4 0 222 0C201.57 0 181.68 30.22 157.65 74.48C127.72 129.6 96.7897 206.49 72.8397 273.88C72.6297 274.46 73.0997 275.08 73.7497 275.08H73.7597Z" fill="white"/>
<path d="M299.854 93.7398C275.934 91.4198 252.314 100.35 234.484 110.09C287.034 134.32 329.214 182.19 364.054 248.82C364.214 249.13 364.544 249.33 364.904 249.33C365.534 249.33 365.944 248.73 365.724 248.15C343.624 190.34 329.654 151.02 299.854 93.7398Z" fill="white"/>
<path d="M127.652 358.48C127.322 358.04 127.322 357.27 127.642 356.18L139.772 315.12C140.612 312.24 141.852 311.73 144.912 311.73H158.672C160.502 311.73 162.112 310.53 162.642 308.77L165.372 299.62H136.772C128.742 299.62 123.402 303.35 121.312 310.4L109.032 351.88C106.882 359.13 106.982 364.19 109.342 367.35C111.342 370.03 114.882 371.33 120.172 371.33H145.862L149.472 359.23H130.752C129.572 359.23 128.152 359.14 127.662 358.48H127.652Z" fill="white"/>
<path d="M216.669 303.6C214.669 300.93 211.129 299.62 205.849 299.62H184.569C176.539 299.62 171.199 303.35 169.109 310.4L156.829 351.88C154.689 359.14 154.789 364.2 157.139 367.35C159.139 370.03 162.679 371.33 167.969 371.33H189.249C197.269 371.33 202.619 367.6 204.709 360.55L216.979 319.07C219.129 311.82 219.029 306.76 216.669 303.6ZM198.519 314.77L186.379 355.83C185.529 358.73 184.039 359.22 181.009 359.22H178.409C177.229 359.23 175.809 359.14 175.309 358.48C174.989 358.04 174.979 357.27 175.299 356.18L187.429 315.12C188.279 312.22 189.779 311.73 192.809 311.73H195.409C196.589 311.72 198.009 311.81 198.499 312.47C198.829 312.91 198.829 313.68 198.519 314.77Z" fill="white"/>
<path d="M324.545 303.61C322.545 300.93 318.995 299.63 313.715 299.63H283.665C281.835 299.63 280.215 300.84 279.695 302.6L276.995 311.74H303.135C304.315 311.73 305.735 311.82 306.235 312.48C306.555 312.92 306.565 313.69 306.245 314.78L302.405 327.74H284.045C276.025 327.74 270.675 331.47 268.595 338.52L264.645 351.88C262.195 360.13 260.645 371.33 275.775 371.33H309.385L324.855 319.08C326.995 311.83 326.895 306.77 324.545 303.61ZM293.215 359.23H286.215C283.605 359.23 282.305 358.93 283.105 356.19L288.195 339.12C289.045 336.22 290.535 335.73 293.565 335.73H300.175L293.215 359.23Z" fill="white"/>
<path d="M376.325 273.95L368.755 299.62H350.425C342.395 299.62 337.055 303.35 334.965 310.4L322.685 351.88C320.535 359.14 320.645 364.2 322.995 367.35C324.995 370.03 328.535 371.33 333.825 371.33H367.365L392.335 287.08C395.295 277.08 387.915 273.95 376.325 273.95ZM351.235 359.22H344.265C343.085 359.22 341.665 359.14 341.165 358.48C340.845 358.04 340.835 357.27 341.165 356.18L353.295 315.12C354.145 312.22 355.645 311.73 358.665 311.73H365.285L351.245 359.22H351.235Z" fill="white"/>
<path d="M270.089 314.36C275.339 308.01 273.639 299.64 264.909 299.64H231.039C229.209 299.64 227.599 300.84 227.069 302.6L224.339 311.75H249.089C239.439 323.42 218.799 348.4 212.009 356.6C206.759 362.95 208.459 371.33 217.189 371.33H255.489L259.109 359.22H233.029C242.269 348.04 263.139 322.78 270.099 314.36H270.089Z" fill="white"/>
<path d="M96.463 299.62L81.393 350.53C80.903 355.87 85.973 358.15 88.353 358.55L88.113 359.22H86.773H85.603H78.813H72.403H72.123C70.943 359.22 69.523 359.13 69.033 358.47C68.703 358.03 68.703 357.26 69.023 356.17L85.763 299.61H65.883L50.413 351.87C46.763 364.2 49.373 371.32 61.553 371.32H95.093L116.313 299.62H96.453H96.463Z" fill="white"/>
<path d="M21.4812 358.61C21.1612 358.18 21.1512 357.43 21.4412 356.38L41.4712 288.57C44.2512 279.15 38.7212 274.63 24.4612 274.63L1.53118 352.02C-0.608825 359.26 -0.508825 364.32 1.85118 367.48C3.85118 370.16 7.39117 371.46 12.6712 371.46H41.1412L44.7512 359.36H24.5712C23.3912 359.36 21.9812 359.27 21.4812 358.61Z" fill="white"/>
<path d="M429.579 299.63H408.169C400.779 299.63 395.049 303.25 393.089 309.86L380.649 351.88C378.509 359.13 378.609 364.19 380.959 367.34C382.959 370.02 386.499 371.32 391.789 371.32H426.989L430.569 359.21H402.359C401.179 359.22 399.769 359.14 399.269 358.47C398.939 358.04 398.939 357.26 399.259 356.18L403.109 343.18H421.329C429.349 343.18 434.699 339.45 436.789 332.4L440.719 319.08C443.159 310.83 444.709 299.63 429.579 299.63ZM422.389 314.77L417.309 331.8C416.459 334.7 414.969 335.19 411.939 335.19H400.309L400.449 334.73C402.529 334.42 405.869 333.35 406.929 329.79L411.409 314.69C412.009 312.66 413.289 311.73 416.319 311.73H419.279C421.899 311.73 423.189 312.03 422.389 314.77Z" fill="white"/>
</svg>
