<?xml version="1.0" encoding="utf-8"?>
<!-- Generator: Adobe Illustrator 27.2.0, SVG Export Plug-In . SVG Version: 6.00 Build 0)  -->
<svg version="1.1" id="Expedia_Horizontal_Logo_Full_Colour_Dark_Blue"
	 xmlns="http://www.w3.org/2000/svg" xmlns:xlink="http://www.w3.org/1999/xlink" x="0px" y="0px" viewBox="0 0 1315.9 264.9"
	 style="enable-background:new 0 0 1315.9 264.9;" xml:space="preserve">
<style type="text/css">
	.st0{fill:#FFFFFF;}
</style>
<g>
	<g>
		<g>
			<path class="st0" d="M536.9,141.6l46.3-64c1.3-2,0.3-3.9-2-3.9H556c-1.3,0-3.1,0.5-3.9,2l-30.5,44.5l-31.3-44.5
				c-0.8-1.3-2.5-2-3.9-2h-26.9c-1.3,0-2.3,1.1-2.3,2.3c0,0.5,0,1.1,0.5,1.7l46.4,64.2l-51.2,70.4c-1.3,2-0.3,3.9,1.7,3.9H480
				c1.3,0,3.1-0.5,3.9-2l35.4-51l35.9,51c0.8,1.5,2.5,2,3.9,2h27.4c1.3,0,2.3-1.1,2.3-2.3c0-0.5-0.3-1.1-0.5-1.7L536.9,141.6z"/>
			<path class="st0" d="M433.5,20.2c2,0,3.3,1.3,3.3,3.3v19c0,2-1.3,3.3-3.3,3.3h-90.4v56.5h81.2c2,0,3.3,1.3,3.3,3.3v18.8
				c0,2-1.3,3.3-3.3,3.3h-81.2v61.9h90.4c2,0,3.3,1.3,3.3,3.3v19.8c0,2-1.3,3.3-3.3,3.3H327.7c-8.1,0-14.2-6.1-14.2-14.2V34.6
				c0-8.1,6.1-14.2,14.2-14.2L433.5,20.2"/>
			<path class="st0" d="M684.1,69.3c-27.4,0-41.9,12-50.4,23.3V77.1c0-2-1.3-3.3-3.3-3.3h-22.1c-2,0-3.3,1.5-3.3,3.3v184.4
				c0,2,1.3,3.3,3.3,3.3h22.4c2,0,3.3-1.3,3.3-3.3V198c8.1,11.2,22.6,22.4,50,22.4c44.5,0,70.5-33.5,70.5-75.6
				S728.5,69.3,684.1,69.3z M679,196.4c-27.4,0-46.2-18.5-46.2-51.2s18.8-51.8,46.2-51.8s45.9,19,45.9,51.8
				C724.9,177.9,706.4,196.4,679,196.4z"/>
			<path class="st0" d="M842.7,69.3c-38.9,0-70,28-70,74.4c0,47.6,27.4,76.7,73.6,76.7c26.6,0,48.7-11.7,62.4-28
				c0.8-0.8,1.1-1.7,1.1-2.5s-0.3-1.7-1.1-2.5l-12.9-12.6c-0.8-0.8-1.7-1.1-2.5-1.1c-0.8,0-1.7,0.5-2.5,1.3
				c-10.6,11.5-24.4,21.3-44.2,21.3c-29,0-42.9-17.9-45.1-43.6h107.5c2,0,3.3-1.5,3.3-3.3v-5.6C912.4,101.1,886.6,69.3,842.7,69.3z
				 M802.6,130.8c3.3-23.4,15.6-38.6,39.9-38.6c24.9,0,38.1,14.2,40,38.6H802.6z"/>
			<path class="st0" d="M1312.6,73.7h-22.1c-2,0-3.3,1.3-3.3,3.3v15.7c-8.4-11.2-22.9-23.3-51-23.3c-43.9,0-70,33.5-70,75.6
				s26.1,75.6,70,75.6c28,0,42.6-12,51-23.3v15.5c0,2,1.3,3.3,3.3,3.3h22.1c2,0,3.3-1.3,3.3-3.3V77.1
				C1316,75.2,1314.5,73.7,1312.6,73.7z M1241.8,196.7c-27.4,0-45.9-19-45.9-51.8c0-32.7,18.5-51.2,45.9-51.2
				c27.4,0,46.2,18.5,46.2,51.2S1269.3,196.7,1241.8,196.7z"/>
			<path class="st0" d="M1077,20.4h-22.4c-2,0-3.3,1.3-3.3,3.3v69.2c-8.4-11.2-22.6-23.3-50.7-23.3c-43.9,0-70,33.5-70,75.6
				s26.1,75.6,70,75.6c28,0,42.6-12,51-23.3v15.4c0,2,1.3,3.3,3.3,3.3h22.1c2,0,3.3-1.3,3.3-3.3V23.7
				C1080.3,21.7,1078.9,20.4,1077,20.4z M1006.2,196.7c-27.4,0-45.9-19-45.9-51.8c0-32.7,18.5-51.2,45.9-51.2s46.2,18.5,46.2,51.2
				S1033.6,196.7,1006.2,196.7z"/>
			<path class="st0" d="M1137.9,20.4c2,0,3.3,1.3,3.3,3.3v22.9c0,2-1.3,3.3-3.3,3.3H1115c-2,0-3.3-1.3-3.3-3.3V23.7
				c0-2,1.3-3.3,3.3-3.3L1137.9,20.4"/>
			<path class="st0" d="M1137.7,73.7c2,0,3.3,1.3,3.3,3.3v135.8c0,2-1.3,3.3-3.3,3.3h-22.4c-2,0-3.3-1.3-3.3-3.3V77.1
				c0-2,1.3-3.3,3.3-3.3h22.4"/>
		</g>
	</g>
	<path class="st0" d="M187.8,0H48.6C21.8,0,0,21.8,0,48.6v139.2c0,26.9,21.8,48.7,48.6,48.7h139.2c26.9,0,48.7-21.8,48.6-48.7V48.6
		C236.4,21.8,214.7,0,187.8,0z M72.3,190.5c0,1.9-1.5,3.3-3.3,3.3H46c-1.9,0-3.3-1.5-3.3-3.3v-22.9c0-1.9,1.5-3.3,3.3-3.3h22.9
		c1.9,0,3.3,1.5,3.3,3.3V190.5z M193.9,170.8c0,2.3-0.8,3.6-2.2,5.1l-22.7,22.6c-1.7,1.7-4.2,0.5-4.2-2V94.3l-63.4,63.4
		c-1,1.1-2.2,1.7-4.2,1.7H80.5c-2,0-3.3-1.3-3.3-3.3v-16.7c0-1.9,0.5-3,1.7-4.2l63.4-63.4H40c-2.5,0-3.6-2.5-2-4.2l22.5-22.7
		c1.5-1.5,2.8-2.3,5.1-2.3h113.1c8.4,0,15.2,6.7,15.2,15.2L193.9,170.8L193.9,170.8z"/>
</g>
</svg>
