<?xml version="1.0" encoding="UTF-8"?>
<svg id="Layer_1" data-name="Layer 1" xmlns="http://www.w3.org/2000/svg" viewBox="0 0 1169.22 333.14">
  <defs>
    <style>
      .cls-1 {
        fill-rule: evenodd;
      }

      .cls-1, .cls-2 {
        fill: #fff;
      }
    </style>
  </defs>
  <path class="cls-1" d="M2.56,301.02c-.54,0-1.07-.17-1.53-.5-1.08-.79-1.35-2.29-.64-3.42,27.2-43.09,95.67-88.65,133.18-88.65,13.2,0,21.36,5.95,23.47,16.87,5.68-4.61,12.96-9.32,20.32-13.08,7.46-3.79,14.88-8.33,24.17-8.33,6.15,0,10.69,1.99,13.47,5.93,3.72,5.26,3.94,13.45.6,24.93,2.17-1.12,4.56-2.42,7.14-3.8,14.91-8.02,36.88-18.01,49.46-18.01,5.04,0,8.81,1.62,11.23,4.81,3.26,4.3,3.83,11.18,1.71,20.95,13.74-5.08,40.69-13.1,59.29-13.1,10.82,0,17.65,2.74,20.31,8.15,3.21,6.55-.03,16.1-9.91,29.18,61.47-24.75,95.4,12.43,95.89,13.17.72,1.12.65,3.85-.61,3.42-16.56-5.69-31.3-28.89-104.3-.19-5.74,2.24-10.22-1.15-12.43-3.49-6.79-7.18-.11-15.7,4.76-21.92,2.45-3.1,5.8-7.37,4.95-8.79-1.67-2.79-4.96-4.16-10.04-4.16-10.95,0-27.58,6.41-42.26,12.06-13.24,5.11-24.65,9.51-31.8,9.51-1.14,0-2.15-.12-3.04-.33-1.46-.37-2.61-1.29-3.22-2.59-1.72-3.67.84-9.55,5.27-18.79,1.78-3.67,6.92-10.34,4.95-12.08-2.41-2.1-18.62,10.79-30.54,19.06-18.99,13.18-30.98,21.19-37.14,21.19-1.47,0-2.68-.43-3.58-1.29-4.68-4.39-3.68-16.73-1.88-32.39.48-4.06,2.12-10.65,1-11.29-4.28-2.37-15.59,10.28-24.38,17.76-14.17,12.07-23.22,19.39-29.16,19.56h-.36c-2.77,0-4.79-.9-6.02-2.68-2.64-3.8-.33-9.95,1.89-15.91.92-2.45,2.84-6.22,2.24-7.39-2.57-4.85-10.07-4.94-16.86-4.94-34.32,0-89,41.2-113.68,69.7-.51.58-1.21.88-1.93.88"/>
  <path class="cls-2" d="M354.82,221.87c6.07,1.33,10.45,3.98,13.1,7.93,3.9-12.89,5.97-26.19,6.22-39.52-4.49-4.03-9.55-8.64-15.25-13.92,1.28,15.21-.06,30.64-4.08,45.51"/>
  <path class="cls-2" d="M99.92,211.46c-7.18-38.87,3.18-80.54,31.75-111.98,35.46-39.03,89.31-51.67,136.58-36.69-1.22-3.52-2.43-7.1-3.6-10.69-.71-2.2-1.36-4.28-1.99-6.26-6.43-1.54-12.98-2.68-19.68-3.34-30.69-3.03-60.95,3.5-87.5,18.89l-6.97,4.05-3.64-7.21c-.15-.31-.34-.56-.59-.78-1.04-.94-2.65-.94-3.67,0l-.29.25-.27.2c-.28.27-.85.86-1.72,1.82-1.67,1.85-41.09,45.72-53.04,101.01-3.06,14.13-5.24,34.64-.49,57.61,5.16-2.64,10.22-4.95,15.11-6.9"/>
  <path class="cls-2" d="M329.93,279.12c-1.55-1.65-2.62-3.33-3.28-5.02-.41.47-.82.95-1.24,1.41-48.54,53.42-131.47,57.39-184.89,8.85-15.07-13.67-26.18-30.09-33.32-47.81-4.85,1.08-10,2.77-15.33,4.98,7.29,17.81,19.38,36.27,38.69,53.81,59.45,54.02,151.78,49.62,205.8-9.86.63-.67,1.21-1.39,1.8-2.08-3.55-.76-6.26-2.17-8.23-4.27"/>
  <path class="cls-2" d="M133.58,203.69c.82,0,1.64.03,2.42.06-.66-4.45-1.01-9.03-1.01-13.66,0-50.54,40.25-91.65,90.44-93.06-.91-1.27-1.27-2.42-1.34-3.6-.11-2.51.7-4.68,2.32-6.38,2.42-2.51,6.27-3.67,12.11-3.67,11.32,0,29.06,4.6,40.1,7.67-.72-1.87-1.55-4.02-2.43-6.31-4.19-1.92-8.52-3.6-12.95-5.01.33-.87.51-1.8.51-2.78,0-4.08-3.12-7.42-7.09-7.77l-.14-.04c-3.15-.47-50.23-.18-89.11,22.31-30.5,17.66-55.11,50.17-55.11,98.66,0,5.68.41,11.26,1.22,16.72,7.33-2.05,14.08-3.12,20.06-3.12"/>
  <path class="cls-2" d="M310.46,132.16c-.59,1.93-2.18,3.41-4.17,3.87-.63.15-1.29.34-1.99.58,10.65,15.13,16.92,33.56,16.92,53.48,0,12.37-2.44,24.16-6.81,34.96,8.57-2,17.42-3.56,25.31-4.03,2.71-9.86,4.18-20.22,4.18-30.93s-1.59-21.84-4.5-32.01c-1.02-.98-2.03-1.95-3.08-2.95,2.08,15.72,7.58,56.9-.89,57.09-5.77.13-2.38-28.64-13.1-72.27-.36-1.5.5-3.08,1.56-4.18,1.07-1.14,2.58-1.79,4.12-1.79.51,0,1.02.1,1.5.22-6.54-11.86-15.1-22.45-25.22-31.3-.21,1.54-.72,2.9-1.6,4.17-2.96,4.25-8.61,4.25-10.47,4.25s-4.07-.18-6.59-.53c10.27,6.04,20.46,12.51,23.55,15.82,1.39,1.48,1.87,3.6,1.28,5.54"/>
  <path class="cls-2" d="M292.52,257.48l-.33.13c-16.69,15.86-39.25,25.6-64.08,25.6-26.94,0-51.2-11.47-68.19-29.75-8.74,7.11-14.54,11.02-19.51,12.23,21.23,24.62,52.65,40.19,87.7,40.19,43.69,0,81.72-24.2,101.45-59.92-10.08,1.14-24.31,6.61-37.04,11.52"/>
  <path class="cls-1" d="M440.02,129.26c-16.87-12.16-53.6-11.02-76.57-13.52-.8-.07-1.13-1.05-.55-1.6,8.27-7.83,40.75-36.7,30.84-42.12-4.55-2.33-57.91,36.05-55.51,20.04,4.62-30.68,14.13-90.01,8.28-91.92-7.57-2.32-12.53,25.44-15.53,34.32-.28.81-1.37.87-1.74.11-4.63-9.74-3.84,16.9-14.88,37.71-.39.71-1.29.58-1.71-.09-95.69-155.88-34.18,6.97-26.69,24.26.31.72-.35,1.47-1.1,1.27-11.46-3.14-56.52-16.88-56.01-4.54.33,6.28,54.75,29.63,65.22,35.16.64.34.64,1.27.01,1.64-29.56,16.5-53.53,46.56-65.32,63.2-.69.97.67,2.05,1.46,1.16,17.28-19.24,54.19-58.09,75.04-62.93.71-.17.96-1.02.47-1.55-4.47-4.8-30.35-19.87-44.26-27.2-.98-.52-.39-2.01.69-1.75,50.3,12.46,39.79,5.78,26.56-33.8-.49-1.44,1.41-2.47,2.36-1.28,23.53,29.81,21.04,37.01,38.3.52.44-.93,1.99-.57,1.8.44-2.96,15.96-5.09,23.73-5.37,39.87-.1,6.05,6.14,10.13,11.61,7.56,8.19-3.84,19.05-10.72,27.5-16.47.95-.65,2,.66,1.17,1.46-34.27,32.48-12.25,21.03,26.03,34.79-.54.07-.66.1-.34.08-.85.13-.89.13-.15,0-54.13-7.87-44.85,8.67-20.64,37.33.72.86-.44,2.04-1.32,1.32-13.89-11.29-26.75-23.55-41.08-33.81-.64-.45-1.53.02-1.48.81.4,8.42,7.3,45.15,7.8,64.97.02,1.13,1.8,1.28,1.87.14.33-6.79-3.85-39.9-6.58-59.71-.13-.92.88-1.55,1.55-.91,14,13.22,73.65,71.01,78.4,66.77,3.01-2.67-31.97-49.25-41.03-60.7-.51-.64.01-1.59.82-1.52,18.49,2.03,94.09-2.44,70.09-19.51-5.65-4.08,2.3,1.63,0,0"/>
  <path class="cls-1" d="M482.25,280.31c.2.32.34.85.34,1.69,0,4.03-1.29,5.96-3.66,5.96-1.17,0-2.13-.28-3.09-.94-.95-.71-1.5-1.55-1.5-2.69.12-.27.24-1.09.39-2.43.21-1.41.61-2.41,1.02-3.07.38-.63,1.23-.83,2.32-.83.87,0,1.72.13,2.68.55.75.43,1.27,1.02,1.51,1.74M495.34,280.31c.13.32.19.85.19,1.69,0,4.03-1.18,5.96-3.61,5.96-1.11,0-2.25-.28-3.09-.94-.92-.71-1.42-1.55-1.42-2.69.03-.27.23-1.09.32-2.43.24-1.41.54-2.41,1.05-3.07.33-.63,1.1-.83,2.22-.83.92,0,1.87.13,2.71.55.73.43,1.32,1.02,1.64,1.74M508.26,280.31c.21.32.28.85.28,1.69,0,4.03-1.23,5.96-3.59,5.96-1.2,0-2.24-.28-3.2-.94-.93-.71-1.34-1.55-1.34-2.69,0-.27.25-1.09.28-2.43.28-1.41.58-2.41,1.05-3.07.33-.63,1.11-.83,2.19-.83,1.01,0,1.91.13,2.71.55.87.43,1.36,1.02,1.6,1.74M518.79,232.84c1.38,4.94,2.4,9.47,2.9,13.54.27,0,.58.12.92.19.29.06.52.06.81.13.67-.07,1.7-.39,3.06-.76,1.33-.6,2.06-.87,2.33-.93.48,0,.97.33,1.34.97.27.59.46,1.24.46,2.14,0,1.61-.71,2.6-2.13,3.09-1.35.53-3.09.85-5.06.94-.44-.08-.81-.16-1.36-.16,0,3.21-.09,7.72-.37,13.38-.25,5.82-.4,9.82-.4,12.17.07.6.15,1.67.15,3.09,0,.53-.33,1-.95,1.28-.66.35-1.43.54-2.45.62-1.68-.18-2.5-.62-2.5-1.23-.08-1.69-.18-3.6-.37-6.1,0-2.42.13-5.91.37-10.69.32-4.6.44-8.02.44-10.06v-3.37c-2.16-.59-4.47-.94-7.19-.94-1.41,0-2-.97-2-2.83,0-1.01.25-1.77.87-2.1.52-.37,1.42-.58,2.56-.58,2,0,3.7.21,5.09.7-.21-2.76-1.02-6.4-2.31-10.7,0-.8.46-1.43,1.16-1.91.73-.39,1.77-.64,2.65-.64,1.17,0,1.88.25,1.98.75M546.61,238.16c-.37,2.14-.73,4.6-.83,7.29.12,2.68.37,4.7.46,6.03,2.5-1.33,5.06-1.99,8.05-1.99,1.67,0,3.44.25,5.01.78,1.62.53,3.14,1.3,4.37,2.36,1.27,1.02,2.31,2.19,3.06,3.61.69,1.48,1.14,3.02,1.2,4.75,0,2.07-.06,3.78-.12,5.09.12,3.81.62,6.43,1.54,7.93.52.73.72,1.43.72,2.25,0,1.07-.35,1.88-1.02,2.7-.82.8-1.73,1.29-2.75,1.35-1.98-.45-3.37-1.47-4.39-3.14-.99-1.73-1.61-3.58-1.64-5.9,0-.91.04-2.17.28-3.85.1-1.66.1-3.09.1-4.08,0-2.23-.56-3.96-1.52-5.29-1.11-1.5-2.7-2.07-4.85-2.07-1.41,0-2.8.13-4.1.73-1.39.65-2.5,1.4-3.46,2.44-.95,1-1.56,2.15-1.66,3.41-.27,1.64-.59,3.4-.8,5.26-.19,1.93-.33,3.59-.58,4.95-.12,1.41-.38,2.94-.78,4.56-.3,1.62-.68,3.29-1.2,4.77-.5,1.47-1.35,2.34-2.77,2.49-1.15-.38-1.86-.97-2.32-1.55-.39-.64-.61-1.56-.73-2.74,0-1.17.31-2.77.67-4.76.35-1.96.67-4.14,1.08-6.17.32-2.16.53-4.21.69-6.28-.69-.04-1.25-.4-1.82-.9-.49-.64-.75-1.44-.83-2.26.15-1.94,1.23-3.56,3.27-4.82v-1.3c.06-.61.06-1.14.06-1.52,0-1.49-.06-3.33-.38-5.91-.14-2.43-.3-4.35-.3-5.63.15-1.95.21-3.28.3-4.19.19-.88.63-1.7,1.09-2.48.65-.88,1.54-1.35,2.9-1.35.7,0,1.41.14,2.04.47.64.35,1.2.88,1.6,1.46.37.6.59,1.4.59,2.23,0,.58-.11,1.08-.23,1.27M604.5,261.37c0-.26-.5-.95-1.43-2.18-.89-1.14-2.12-2.31-3.73-3.35-1.62-1.02-3.42-1.49-5.52-1.49-1.79,0-3.41.32-4.89,1.07-1.55.69-2.88,1.78-3.99,2.99-1.17,1.3-2.03,2.7-2.68,4.29-.69,1.63-1.05,3.32-1.05,5.04.01.42.06.88.06,1.55,4.79-2.23,8.99-3.77,12.86-4.83.9-.3,2.54-.73,4.73-1.39,2.35-.55,3.85-1.01,4.54-1.19.75-.2,1.04-.32,1.11-.51M588.92,249.02c2.39-.41,4.25-.63,5.7-.63,1.94,0,3.61.21,5.12.78,1.46.56,2.75,1.32,3.94,2.04,1.18.85,2.36,1.99,3.61,3.28,1.12,1.34,2.23,2.42,2.84,3.19,1.17,1.28,1.75,2.84,1.75,4.37,0,1.28-.39,2.39-1.16,3.46-.83.91-1.98,1.54-3.55,1.91-.89.31-2.47.58-4.57.93-1.99.26-3.97.75-5.73,1.21-1.82.34-3.83.92-6.14,1.86-2.29.76-4.69,1.86-7.09,3.17,1.15,2.06,2.62,3.77,4.53,5,1.88,1.25,4.04,2.16,6.27,2.68,2.37.52,4.77.9,7.27.91,2.9-.13,6.23-.56,9.97-1.26.75,0,1.54.27,2.13.98.56.71.89,1.55.89,2.45,0,1.47-.58,2.3-1.87,2.57-3.77.72-7.42,1.19-10.8,1.19-4.63,0-9.08-.9-13.1-2.57-4.19-1.72-7.54-4.63-10.27-8.85-.11.08-.23.11-.4.2-.1.11-.19.11-.34.12-.56,0-1.02-.49-1.65-1.37-.6-.83-.95-1.67-.95-2.62.04-.85.34-1.52.87-1.71-.4-1.28-.68-2.7-.83-4.5.08-2.59.64-5.19,1.54-7.85,1-2.56,2.46-4.86,4.5-6.93,2.02-1.96,4.57-3.31,7.54-4.02M638.86,254.06c0,.72.49,1.36,1.18,1.78.89.53,2.06,1.04,3.72,1.58,1.57.58,2.56.89,2.91,1.08,2.83,1.11,5.33,2.54,7.31,4.41,2.03,1.95,3.45,3.84,4.41,5.71.93,1.87,1.44,3.56,1.44,4.92-.15,1.33-.3,2.38-.71,3.32-.4.85-1.29,1.85-2.87,3.01-.39.4-1.1.96-2,1.9-.89.87-1.61,1.57-2.13,2.11-.58.55-1.48,1.01-2.39,1.44-.9.44-1.96.57-3.36.57-7.19,0-12.59-2.69-15.93-7.97-.2-.37-.27-.72-.27-.94,0-.85.44-1.54,1.23-2.21.83-.73,1.52-1.02,2.2-1.02.6,0,1.07.21,1.28.47,1.15,1.71,2.57,3.14,4.54,4.37,1.88,1.12,3.61,1.74,5.5,1.86,1.02-.12,2.1-.42,2.93-.93.77-.55,1.67-1.36,2.77-2.33,1.12-1.08,1.95-1.84,2.39-2.32.51-.4.67-.84.67-1.49,0-1.08-.5-2.31-1.52-3.73-1.09-1.48-2.47-2.87-4.11-4.09-1.73-1.23-3.45-2.2-5.27-2.84-1.05-.27-2.1-.71-3.36-1.14-1.22-.5-2.28-.91-3.14-1.59-.9-.59-1.61-1.32-2.19-2.13-.52-.96-.77-2.07-.77-3.39,0-2.04.65-3.72,2.06-4.99,1.4-1.48,3.49-2.24,6.27-2.43,2.06,0,4.48.14,7.37.38,2.75.25,4.73.57,5.75.89.4.1.58.66.58,1.54s-.18,1.63-.58,2.45c-.46.91-.81,1.35-1.39,1.35-.25,0-1.11-.23-2.56-.44-1.46-.19-2.67-.41-3.92-.53-1.34-.24-2.42-.26-3.56-.26-2.89,0-4.37.6-4.48,1.65M678.29,250.49c-.44,1.8-.5,4.93-.75,9.21,0,3.35.31,6.48.75,9.38.46,2.85,1.08,5.27,2.06,7.11.86,1.82,1.98,2.8,3.21,3.01,1.85,0,3.54-.59,4.94-1.67,1.41-1.08,2.56-2.35,3.42-3.81.68-1.45,1.27-2.76,1.54-3.9,0-.13.24-1.68.39-4.5.4-2.87.63-4.94.96-6.36,0-.56.94-.89,2.59-.89,1.02,0,2.01.15,2.69.33.73.25,1.11.56,1.11.97-.21,2.18-.38,4.34-.69,6.86-.19,2.37-.42,4.57-.58,6.63-.15,1.87-.28,4.01-.34,6.13.19,3.79.34,6.76.59,8.65,0,.38-.77.63-2.38.63-.9,0-1.67-.06-2.47-.17-.74-.14-1.09-.25-1.24-.46-.4-1.16-.64-3.35-.64-6.56-1.44,1.93-2.93,3.21-4.2,3.91-1.47.75-2.99.97-4.59.97h-1.8c-3.1-.28-5.54-1.89-7.43-4.42-1.77-2.58-2.96-5.64-3.7-9.19-.71-3.56-1.05-7.23-1.15-11.24.1-2.45.17-5,.44-7.42.21-2.48.37-3.61.37-3.42.25-.7.81-1.3,1.54-1.66.83-.38,1.66-.63,2.47-.63,1.92,0,2.88.82,2.88,2.51M710.4,249.91c1.17,1.17,1.7,2.52,2.05,3.99,3.97-1.99,7.95-3.01,11.71-3.01,2.29,0,4.47.47,6.33,1.25,1.76.69,3.33,1.91,4.66,3.43,1.2,1.62,2,3.46,2.38,5.84,0,.52.08,1.42.08,2.74,0,1.08-.08,3.13-.24,5.98.15,2.04.49,3.88,1.05,5.29.59,1.54.86,2.8.86,3.79,0,1.22-.27,2.15-.96,2.9-.71.67-1.6,1.07-2.64,1.21-3.73-.38-5.57-4.18-5.86-11.42.24-3.75.3-6.36.3-7.75-.06-1.88-.76-3.58-2-4.86-1.26-1.22-3.04-1.88-5.15-1.88-3.14.08-6.29,1.24-9.43,3.4.19,3.31.43,7.76.43,13.39,0,4.8-.24,7.81-.43,8.85-.28,1.17-1.42,1.78-3.34,1.94-1.07-.1-1.93-.28-2.62-.77-.81-.49-1.14-1.04-1.14-1.6.46-6.08.76-10.34.76-12.79,0-1.68-.15-3.86-.3-6.49-.46,0-1.02-.15-1.75-.64-.59-.27-.88-.94-.94-1.71.07-1.05.58-2.08,1.32-3.15,0-.15-.31-.93-.79-2.26-.62-1.38-.92-2.31-.92-3.01.14-1,.46-1.88,1.29-2.72.64-.88,1.54-1.29,2.58-1.29.96,0,1.89.41,2.71,1.36M751.38,249.91c1.1,1.17,1.81,2.52,2.07,3.99,3.95-1.99,7.93-3.01,11.75-3.01,2.25,0,4.34.47,6.2,1.25,1.94.69,3.42,1.91,4.69,3.43,1.23,1.62,2.06,3.46,2.31,5.84.07.52.18,1.42.18,2.74,0,1.08-.11,3.13-.33,5.98.19,2.04.52,3.88,1.14,5.29.46,1.54.86,2.8.86,3.79,0,1.22-.4,2.15-1.08,2.9-.59.67-1.39,1.07-2.43,1.21-3.8-.38-5.77-4.18-5.96-11.42.13-3.75.19-6.36.19-7.75,0-1.88-.75-3.58-1.98-4.86-1.23-1.22-2.88-1.88-5.06-1.88-3.13.08-6.23,1.24-9.38,3.4.13,3.31.28,7.76.28,13.39,0,4.8-.15,7.81-.28,8.85-.37,1.17-1.48,1.78-3.45,1.94-.93-.1-1.86-.28-2.65-.77-.75-.49-1.12-1.04-1.12-1.6.5-6.08.74-10.34.74-12.79,0-1.68,0-3.86-.24-6.49-.5,0-1.03-.15-1.59-.64-.68-.27-1.04-.94-1.04-1.71.15-1.05.64-2.08,1.36-3.15,0-.15-.32-.93-.84-2.26-.56-1.38-.89-2.31-.89-3.01.13-1,.52-1.88,1.26-2.72.69-.88,1.49-1.29,2.51-1.29s1.94.41,2.77,1.36M818.96,252.79c-.67,1.87-1.54,4.09-2.64,6.4-1.11,2.37-2.38,5.12-3.94,8.23-1.59,3.06-2.81,5.71-3.86,7.67-1.05,2.03-1.86,3.71-2.4,4.98.55.75.86,1.64.86,2.66,0,1.2-.32,2.13-.92,2.95-.55.8-1.28,1.24-2.19,1.24-.8,1.29-1.77,3.21-2.9,5.55-1.21,2.41-2,3.81-2.19,4.36-.33.5-.89.76-1.77.76-.8,0-1.5-.26-2.19-.97-.73-.47-1.08-1.33-1.08-2.19v-.5c0-.24.07-.4.07-.49.46-1.29,1.47-3.28,2.81-5.9,1.32-2.69,2.16-4.37,2.35-4.93-1.71-1.33-3.03-3.02-4.32-4.73-1.2-1.84-2.28-3.71-3.03-5.62-.95-2-1.87-4.28-2.89-7.05-1.08-2.71-1.92-4.81-2.44-6.27-.08-.31-.15-.47-.19-.71-.05-.14-.14-.41-.18-.76,0-.84.33-1.66,1.1-2.3.9-.53,1.7-.85,2.69-.85,1.57,0,2.62.57,3.15,1.95.42,1.07.96,2.67,1.72,4.93.74,2.29,1.4,4.15,2.05,5.54.5,1.53,1.17,3.07,1.97,4.51.87,1.6,1.8,2.92,2.96,4.17,5.83-12.49,9.23-20.62,10.52-24.55.35-1.16,1.3-1.72,3.13-1.72,1.02,0,1.93.31,2.66.83.83.56,1.19,1.16,1.19,1.98,0,.16,0,.25-.07.42v.38l-.03.03ZM843.13,254.06c0,.72.48,1.36,1.35,1.78.67.53,1.91,1.04,3.52,1.58,1.67.58,2.65.89,2.96,1.08,2.81,1.11,5.27,2.54,7.25,4.41,2,1.95,3.54,3.84,4.48,5.71.89,1.87,1.47,3.56,1.47,4.92-.14,1.33-.37,2.38-.82,3.32-.32.85-1.23,1.85-2.82,3.01-.37.4-1.07.96-1.97,1.9-.87.87-1.58,1.57-2.25,2.11-.46.55-1.3,1.01-2.25,1.44-.98.44-2.01.57-3.36.57-7.26,0-12.53-2.69-15.99-7.97-.08-.37-.26-.72-.26-.94,0-.85.45-1.54,1.23-2.21.71-.73,1.48-1.02,2.22-1.02.65,0,1.11.21,1.26.47,1.22,1.71,2.7,3.14,4.51,4.37,1.86,1.12,3.71,1.74,5.52,1.86,1.18-.12,2.13-.42,2.96-.93.69-.55,1.63-1.36,2.81-2.33,1.05-1.08,1.79-1.84,2.34-2.32.4-.4.71-.84.71-1.49,0-1.08-.52-2.31-1.61-3.73-.98-1.48-2.34-2.87-4.1-4.09-1.63-1.23-3.45-2.2-5.21-2.84-1.08-.27-2.19-.71-3.39-1.14-1.23-.5-2.29-.91-3.15-1.59-.8-.59-1.54-1.32-2.19-2.13-.56-.96-.83-2.07-.83-3.39,0-2.04.73-3.72,2.22-4.99,1.3-1.48,3.4-2.24,6.27-2.43,2,0,4.41.14,7.29.38,2.9.25,4.75.57,5.89.89.28.1.46.66.46,1.54s-.21,1.63-.62,2.45c-.4.91-.84,1.35-1.33,1.35-.25,0-1.17-.23-2.56-.44-1.44-.19-2.84-.41-3.92-.53-1.33-.24-2.52-.26-3.58-.26-2.86,0-4.31.6-4.5,1.65M880.56,234.64c.64.15,1.08,1.27,1.08,3.33,0,1.72-.31,3.08-.69,4.06-.46.98-1.5,1.61-2.93,1.95-.67,0-1.2-.34-1.85-.99-.74-.62-1.15-1.42-1.6-2.25-.47-.87-.59-1.54-.59-1.97,0-.62.28-1.25.89-1.88.67-.77,1.46-1.32,2.47-1.78.91-.38,1.77-.67,2.38-.67.15,0,.4.05.48.12.3,0,.37.07.37.07M879.99,249.02c.96,1.66,1.49,3.39,1.49,5.32,0,1.42-.15,2.91-.38,4.31-.21,1.46-.55,3.28-1.23,5.5-.42,2.27-.77,4.04-.98,5.44-.22,1.22-.27,2.69-.27,4,0,.42.14,1.33.4,2.61.28,1.33.43,2.16.43,2.8,0,.86-.34,1.63-1.15,2.17-.71.58-1.67.9-2.58.95-3.15-.26-4.59-2.7-4.84-7.26.1-1.49.49-3.89.98-7.12.59-3.22.96-5.31,1.15-6.51.18-1.07.21-2.52.21-4.19,0-.85-.04-2.37-.21-4.47,0-1.67.39-2.91,1.1-3.73.77-.85,1.8-1.28,2.78-1.28,1.52,0,2.56.52,3.1,1.47M922.39,235.09c-.25,1.69-.32,4.99-.44,9.92.12,5.72.5,10.64,1.02,14.7.65,2.23.9,3.92.9,5.27,0,1.03-.21,2.33-.67,3.82,0,.63.15,1.98.43,4.09.34,2.2.4,3.77.4,5.01,0,2.5-1.27,3.85-4,4.11-1-.15-1.65-.64-2.09-1.19-.51-.75-.79-1.6-.98-2.79-1.44,1.39-3.29,2.61-5.77,3.53-2.25.91-4.83,1.47-7.46,1.5-2.19-.15-3.69-.43-4.54-.64-5.86-1.49-9.62-5.3-11.6-11.36-.37-1.53-.73-3.63-.89-6.28,0-2.93.73-5.86,1.94-8.71,1.32-2.86,3.08-5.26,5.52-7.1,2.35-1.79,5.02-2.65,8.14-2.65,1.03,0,2.86.15,5.06.59.46-.44,1.08-.59,1.61-.59,1.82,0,3.79,1.1,6.05,3.42-.22-1.66-.28-3.27-.34-4.84-.21-1.6-.29-2.86-.31-3.76.03-.59.03-1.17.06-1.65.04-.44.04-.83.09-1.15,0-.37.16-.81.16-1.45,0-.6.06-1.21.06-1.78.06-1.35.4-2.38,1.14-3.18.73-.62,1.52-.95,2.4-.95,1.17,0,2.1.33,2.84,1.1.86.75,1.27,1.74,1.27,3M907.02,253.69c-1.69-.72-3.11-1.12-4.32-1.12-1.91,0-3.58.7-4.97,2.1-1.38,1.35-2.47,3.06-3.17,5.11-.71,2.11-1.05,4.15-1.05,6.2.33,1.99.93,3.86,2,5.65.98,1.74,2.33,3.13,3.73,4.21,1.6,1.02,3.27,1.52,5,1.52.56,0,1.16-.01,1.78-.17,2.38-.52,4.47-1.46,6.4-2.9,1.97-1.39,3.29-3.08,4.18-4.99,0-3.2-.49-6.18-1.29-8.86-.17,0-.52.08-.64.15-1.15-.19-2.02-.78-2.72-1.61-.67-.74-1.39-1.73-2.29-2.9-.9-1.15-1.76-1.87-2.65-2.37M957.61,261.37c0-.26-.46-.95-1.35-2.18-.96-1.14-2.27-2.31-3.88-3.35-1.54-1.02-3.42-1.49-5.46-1.49-1.75,0-3.46.32-4.85,1.07-1.62.69-2.99,1.78-4.04,2.99-1.11,1.3-2.06,2.7-2.74,4.29-.63,1.63-1,3.32-1,5.04.03.42.03.88.03,1.55,4.75-2.23,8.97-3.77,12.8-4.83,1-.3,2.67-.73,4.88-1.39,2.23-.55,3.86-1.01,4.47-1.19.71-.2,1.14-.32,1.14-.51M942.07,249.02c2.37-.41,4.19-.63,5.68-.63,1.91,0,3.58.21,5.15.78,1.34.56,2.78,1.32,3.98,2.04,1.05.85,2.25,1.99,3.48,3.28,1.23,1.34,2.19,2.42,2.94,3.19,1.11,1.28,1.75,2.84,1.75,4.37,0,1.28-.46,2.39-1.29,3.46-.81.91-1.97,1.54-3.48,1.91-.94.31-2.44.58-4.51.93-2.12.26-4.06.75-5.83,1.21-1.81.34-3.83.92-6.17,1.86-2.16.76-4.62,1.86-6.94,3.17,1.09,2.06,2.57,3.77,4.42,5,1.92,1.25,4.1,2.16,6.23,2.68,2.43.52,4.81.9,7.31.91,2.9-.13,6.23-.56,9.96-1.26.78,0,1.55.27,2.19.98.61.71.86,1.55.86,2.45,0,1.47-.61,2.3-1.85,2.57-3.89.72-7.44,1.19-10.86,1.19-4.72,0-9.08-.9-13.02-2.57-4.16-1.72-7.64-4.63-10.39-8.85-.1.08-.15.11-.29.2-.17.07-.31.11-.42.12-.5,0-1.02-.49-1.61-1.37-.62-.83-.89-1.67-.89-2.62,0-.85.37-1.52.8-1.71-.33-1.28-.64-2.7-.8-4.5.06-2.59.65-5.19,1.5-7.85,1-2.56,2.5-4.86,4.57-6.93,1.98-1.96,4.47-3.31,7.52-4.02"/>
  <path class="cls-1" d="M1011.17,248.61c2.09.35,4.16,1.04,6.03,2.12,2.05,1.06,3.61,2.67,4.89,4.47,1.27,1.84,1.95,3.96,2.04,6.37,0,.7.1,1.28.3,1.99.24.64.53,1.5.9,2.41.4.95.69,1.77.87,2.32.27.6.39,1.3.39,1.9,0,1.42-.7,2.7-1.92,4-2.06,2.27-4.25,4.17-6.23,5.67-2.12,1.61-4.38,2.87-6.73,3.87-2.45.97-4.98,1.47-7.59,1.47s-5.11-.86-7.23-2.59c-2.12-1.62-3.96-3.77-5.29-6.36-1.44-2.64-2.39-5.2-2.75-7.7,0-3.16.65-5.98,2.04-8.62,1.43-2.51,3.14-4.59,5.58-6.07,2.3-1.53,4.81-2.29,7.64-2.29h1.39c.3-.84.95-1.56,2.06-2.09,1.07-.52,2.17-.87,3.61-.87M1016.2,259.38c-.32-1.14-1.03-1.88-2.1-2.34-.97-.59-2.2-1.02-3.91-1.61-.15,1.07-.88,1.95-1.93,2.65-1.25.58-2.68.96-4.44,1.08-1.94.22-3.63.76-5.06,1.59-1.44.94-2.3,2.1-2.73,3.71-.15.77-.26,1.85-.46,3.28.02,1.63.55,3.23,1.4,4.79.8,1.48,2,2.82,3.47,3.8,1.32,1.03,2.9,1.69,4.45,1.83,1.61,0,3.36-.45,5.02-1.25,1.63-.84,3.21-1.81,4.71-2.95,1.41-1.29,2.56-2.33,3.46-3.46.57-.67.84-1.35.84-1.88,0-.46-.25-1.12-.66-2.1-.46-.96-.67-1.79-.82-2.54-.12-.79-.43-1.54-.57-2.29-.28-.72-.47-1.53-.69-2.3M1052.84,234.07c1.54,0,2.15,1.01,2.15,3.08,0,.8-.11,1.46-.33,1.88-.28.65-.78.86-1.21.86-1.89.07-3.94.52-6.05,1.24-2.1.89-3.39,2.04-3.72,3.7-.1.51-.24,1.62-.51,3.3.12.67.28,1.61.36,2.68.15,1.27.25,2.22.31,2.89.64-.22,1.21-.3,1.95-.49.66-.16,1.3-.23,2-.38.6-.08,1.2-.15,1.59-.15,2.03,0,2.96,1.09,2.96,3.14,0,1.16-.38,1.91-1.12,2.41-.69.48-1.84.81-3.28,1.16-1.42.33-2.26.55-2.82.77.07.96.07,2.54.07,4.7,0,2.72-.13,5.33-.5,8.19-.33,2.68-.84,5.1-1.23,7.45-.56,2.3-1.09,4.18-1.66,5.27-.32.98-1.26,1.37-2.67,1.37-.9,0-1.59-.17-2.16-.65-.71-.54-.95-1.14-.95-2.05.09-.58.47-2.44,1.14-5.45.69-2.9,1.19-5.41,1.6-7.8.47-2.38.71-4.69.71-6.86,0-.91,0-1.61-.1-1.91-.25.1-.84.3-1.62.85-.78.43-1.49.84-1.93,1.03-.54.2-1.05.33-1.6.33-.68-.13-1.29-.33-1.77-.87-.46-.49-.64-1.08-.75-1.78.2-2.28,2.31-4.27,6.48-6.17-.15-.62-.26-1.15-.3-1.75-.05-.66-.2-1.27-.2-1.82-.15-.66-.37-1.35-.42-2.16-.11-.87-.2-1.69-.2-2.37.1-1.78.37-3.51.78-4.95.56-1.82,1.62-3.46,3.08-4.74,1.61-1.37,3.43-2.33,5.52-2.94,2.09-.69,4.26-1.01,6.4-1.01M1083.78,238.16c-.15,2.37-.21,4.49-.21,6.04,0,4.03.21,7.64.45,10.99.36,3.46.76,7.26,1.45,11.3.53,4.1.98,7.07,1.2,8.58.24,1.68.28,3.28.28,4.98,0,1.42-.14,2.39-.62,3.2-.38.82-1.1,1.35-2.31,1.46-.91-.04-1.9-.42-2.59-1.19-.85-.73-1.27-1.52-1.27-2.43,0-1.86-.44-5.16-1.11-9.89-.77-4.89-1.35-9.13-1.8-12.95-.64-3.74-.87-8.09-.87-13.02.24-2.84.24-4.92.24-6.19.11-1.25.5-2.32,1.12-2.99.69-.66,1.41-.97,2.28-.97,1.08,0,2,.25,2.75.82.59.62,1.03,1.29,1.03,2.26M1098.55,234.63c.64.17.98,1.25.98,3.33,0,1.73-.19,3-.69,4.06-.39,1-1.36,1.63-2.89,1.96-.61,0-1.14-.33-1.73-1.05-.69-.55-1.24-1.35-1.62-2.18-.5-.9-.71-1.54-.71-1.97,0-.62.36-1.26,1.01-1.88.64-.78,1.42-1.33,2.44-1.79.87-.44,1.68-.71,2.44-.71.2,0,.39.06.53.17.14,0,.14.07.24.07M1097.98,249.02c.96,1.66,1.47,3.38,1.47,5.31,0,1.43-.1,2.9-.44,4.32-.22,1.46-.56,3.22-1.03,5.49-.5,2.29-.79,4.04-1.08,5.45-.19,1.22-.35,2.69-.39,3.99.03.41.2,1.34.43,2.62.27,1.27.51,2.16.51,2.79,0,.87-.43,1.65-1.2,2.18-.76.58-1.66.9-2.55.95-3.1-.26-4.68-2.7-4.81-7.26.1-1.48.34-3.89.97-7.12.61-3.22.96-5.31,1.03-6.52.26-1.07.45-2.51.45-4.18,0-.85-.19-2.37-.45-4.47,0-1.77.48-2.91,1.21-3.73.8-.87,1.74-1.28,2.76-1.28,1.54,0,2.58.47,3.11,1.47M1122.36,234.07c1.42,0,2.17,1.01,2.17,3.08,0,.8-.11,1.46-.44,1.88-.31.65-.62.86-1.11.86-1.94.07-3.88.52-6.02,1.24-2.14.89-3.39,2.04-3.76,3.7-.19.51-.37,1.62-.53,3.3.06.67.16,1.61.34,2.68.08,1.27.19,2.22.3,2.89.62-.22,1.21-.3,1.87-.49.77-.16,1.43-.23,2.11-.38.62-.08,1.2-.15,1.67-.15,1.85,0,2.94,1.09,2.94,3.14,0,1.16-.34,1.91-1.12,2.41-.81.48-1.85.81-3.35,1.16-1.41.33-2.31.55-2.84.77.07.96.1,2.54.1,4.7,0,2.72-.16,5.33-.4,8.19-.37,2.68-.89,5.1-1.4,7.45-.53,2.3-1.05,4.18-1.63,5.27-.37.98-1.2,1.37-2.66,1.37-.84,0-1.6-.17-2.18-.65-.49-.54-.87-1.14-.87-2.05.18-.58.45-2.44,1.12-5.45.69-2.9,1.21-5.41,1.63-7.8.39-2.38.63-4.69.63-6.86,0-.91-.04-1.61-.04-1.91-.3.1-.79.3-1.71.85-.77.43-1.26.84-1.82,1.03-.49.2-1.08.33-1.62.33-.69-.13-1.29-.33-1.69-.87-.4-.49-.73-1.08-.83-1.78.16-2.28,2.33-4.27,6.48-6.17-.12-.62-.16-1.15-.34-1.75-.17-.66-.17-1.27-.17-1.82-.19-.66-.3-1.35-.4-2.16-.12-.87-.15-1.69-.32-2.37.2-1.78.53-3.51.89-4.95.52-1.82,1.58-3.46,3.16-4.74,1.57-1.37,3.41-2.33,5.47-2.94,2.15-.69,4.24-1.01,6.41-1.01M1158.91,261.37c0-.26-.58-.95-1.45-2.18-.86-1.14-2.23-2.31-3.76-3.38-1.63-1.01-3.53-1.48-5.5-1.48-1.73,0-3.4.33-5,1.09-1.54.69-2.78,1.78-3.92,2.99-1.17,1.3-2.05,2.7-2.7,4.28-.72,1.65-1.05,3.33-1.12,5.05.15.4.15.87.15,1.55,4.64-2.23,8.96-3.77,12.81-4.84.88-.31,2.51-.74,4.87-1.39,2.3-.6,3.76-1.01,4.38-1.19.8-.2,1.15-.32,1.22-.51M1143.22,249.02c2.4-.41,4.37-.64,5.84-.64,1.84,0,3.6.23,5.06.8,1.49.56,2.86,1.21,3.93,2.04,1.16.85,2.37,1.99,3.6,3.28,1.24,1.32,2.18,2.42,2.9,3.14,1.07,1.33,1.75,2.87,1.75,4.42,0,1.28-.52,2.39-1.25,3.38-.77.96-2.01,1.62-3.57,1.99-.9.31-2.41.53-4.45.92-2.14.25-4.01.75-5.93,1.17-1.79.37-3.76.92-6.02,1.89-2.29.75-4.62,1.86-7.1,3.16,1.11,2.07,2.72,3.78,4.52,5.01,1.97,1.24,4.08,2.16,6.34,2.68,2.25.52,4.68.78,7.19.91,2.87-.13,6.18-.58,9.94-1.26.92,0,1.56.2,2.18.98.59.71.83,1.54.83,2.45,0,1.4-.53,2.3-1.73,2.56-3.91.75-7.56,1.17-10.89,1.17-4.62,0-9.12-.86-13.16-2.54-4.11-1.72-7.51-4.63-10.26-8.85-.04.08-.13.11-.29.2-.15.01-.3.1-.38.11-.53,0-1.07-.49-1.7-1.35-.56-.83-.81-1.67-1-2.62.19-.87.44-1.52.89-1.71-.34-1.28-.59-2.74-.7-4.5.1-2.6.46-5.17,1.48-7.85,1-2.56,2.43-4.86,4.54-6.93,1.96-1.96,4.48-3.31,7.42-4.02"/>
  <path class="cls-2" d="M668.9,209.53c-22.41-48.13-38.01-99.07-46.86-151.41-1.07-6.31-9.84-7.83-13.9-3.68-10.15,10.45-17.26,22.92-24.53,35.45-2.03,3.48-19.81,36.87-24.46,42.92.04-1.93-1.78-6.09-1.89-6.54-.83-3.46-1.35-6.97-1.75-10.51-.8-6.79-1.02-13.64-1.65-20.46-1.04-11.51-1.77-24.18-12.82-30.5-4.52-2.57-10.97-.33-12.2,4.98-6.74,28.52-15.34,56.62-27.99,82.81,2.74-9.92,5.56-19.82,7.96-29.8,6.07-25.16,8.66-50.88,7.76-76.74-.37-10.66-16.99-10.71-16.62,0,.95,27.31-2.3,53.89-9.18,80.33-6.27,24.1-13.64,47.67-16.58,72.49-1.09,9.23,11.22,9.82,15.48,4.18,23.13-30.47,37.79-65.74,48.25-102.24.02,2.23.04,4.22.15,5.68.62,8.08,1.26,16.29,3.16,24.2,2.3,9.56,7.39,24.57,20.34,21.14,5.73-1.54,9.16-6.89,12.02-11.59,4.95-8.16,9.6-16.54,14.4-24.79,6.85-11.81,13.22-24.57,21.15-35.97,9.51,47.82,24.79,94.17,45.38,138.43,4.52,9.7,18.85,1.28,14.36-8.39"/>
  <path class="cls-2" d="M710.2,181.99c-8.09-.02-24.3-.2-25.8-10.46-3.01-20.66,20.79-34.32,37.57-36.99,3.11-.49,9.74-1.93,12.44.33,3.49,2.94,2.19,12.37,2.05,16.49-.31,8.52-1.91,16.94-2.18,25.42,0,.31.01.61.01.94-7.72,2.79-15.82,4.29-24.08,4.26M755.13,186.9c-8.27-.87-1.95-35.49-1.94-41.22,0-9.68-1.13-19.87-10.4-25.15-18.4-10.49-48.3,2.49-61.26,16.45-12.36,13.33-22.05,40.9-4.01,53.82,16.53,11.84,41.63,9.34,60.94,2.83,3.45,5.39,9.01,9.09,16.68,9.88,10.62,1.1,10.56-15.52,0-16.61"/>
  <path class="cls-1" d="M564.92,88.01c-12.83-13.21-1.18-56.31,11.3-34.71,6.62,11.43,12.29,34.71-11.3,34.71"/>
  <path class="cls-1" d="M510.9,211.87c-6.17,0,10.71-64.02,24.04-64.02,10.37,16.42.03,60.99-24.04,64.02"/>
  <path class="cls-1" d="M714.07,175.13c-16.36-2.79-23.09-31.88-1.99-30.28,12.07.91,28.66,28.27,1.99,30.28"/>
  <path class="cls-1" d="M914.34,52.02c13.51,13.48,11.61,32.2.89,30.9-9.67-1.16-12.31-41.29-.89-30.9"/>
  <path class="cls-2" d="M828.57,176.37c-6.3-10.38-2.03-26.81,7.24-33.61,8.29-6.09,18.94-8.29,29.05-6.99,2.54,15.16,5.5,30.23,8.87,45.26-14.95,6.59-37.69,7.62-45.16-4.66M892.64,189.08c1.41-1.21,2.7-2.51,3.84-3.87,5.7-6.77-1.46-16.05-7.97-14.26-10.2-47.1-14.11-77.21-16.08-125.45-.43-10.65-17.05-10.71-16.61,0,1.25,30.64,1.9,43.42,6.4,73.71-32.35-.53-63.26,24.66-50.39,60.37,8.52,23.61,42.02,27.21,65.81,18.15,1.01,4.12,2.04,8.26,3.1,12.38,2.71,10.35,18.74,5.96,16.03-4.42-1.43-5.52-2.81-11.06-4.14-16.61"/>
  <path class="cls-2" d="M909.59,104.75c.6,20.4,1.68,40.76,3.33,61.11,1.5,18.37,1.59,24.55,7.65,42.12,3.47,10.06,19.51,5.72,16.02-4.42-6.02-17.46-5.96-23.6-7.38-41.9-1.48-18.93-2.44-37.9-3.01-56.9-.31-10.66-16.92-10.71-16.61,0"/>
  <path class="cls-2" d="M1001.84,98.68c-7.71,13.53-10.3,28.29-13.67,43.29-2.41,10.69-5.95,25.57-12.63,36.52-5.18-22.15-10.37-44.32-15.56-66.46-2.43-10.42-18.46-6.01-16.02,4.41,6.35,27.17,12.7,54.32,19.06,81.48,1.12,4.79,7.95,8.15,12.2,4.97,30.35-22.77,23.87-65.9,40.97-95.82,5.31-9.3-9.05-17.68-14.36-8.39"/>
  <path class="cls-2" d="M1047.01,135.49c3.52-6.9,9.2-12.55,16.54-15.31,5.18-1.95,9.93-3.29,13.5,1.3,2.68,3.45,2.38,7.56,1.14,11.69-3.77,12.43-22.1,14.56-34.99,14.81.49-4.12,1.69-8.32,3.8-12.5M1088.46,186.79c-19.44,4.79-37.02-6.27-43.18-22.31,22.19-1.04,48.11-8.37,50.12-33.73.9-11.25-1.48-22.63-13.04-27.07-12.29-4.73-26.62-.1-36.55,7.67-18.89,14.8-24.85,42.89-14.33,64.35,11.08,22.54,37.63,32.97,61.41,27.11,10.37-2.56,5.98-18.59-4.43-16.03"/>
  <path class="cls-2" d="M1167.29,90.44c-10.12-12.9-28.01-14.61-41.75-6.51-12.32,7.28-22.87,23.22-15.33,37.44,8.33,15.72,33.12,19.27,37.69,37.21,1.04,4.11,1.54,11.22.16,15.33-2.2,6.6-9.86,6.68-15.68,5.45-11.28-2.37-18.44-11.79-23.63-21.3-5.14-9.4-19.5-1.02-14.36,8.37,8.55,15.65,22.34,29.04,41.08,29.97,17.85.9,28.51-9.27,29.62-26.49,1.19-18.26-6.81-30.11-20.92-40.75-7.74-5.84-24.49-13.02-17.29-24.31,6.61-10.38,20.91-12.57,28.67-2.68,6.59,8.41,18.28-3.41,11.75-11.74"/>
  <path class="cls-1" d="M975.69,133.56c-2.31-5.76-18.8-39.97,2.88-33.89,16.93,4.71,8.83,36.59-2.88,33.89"/>
  <path class="cls-1" d="M839.36,176.58c-17.22-7.05,1.87-33.59,11.87-32.99,22.59,1.31,7.49,32.99-11.87,32.99"/>
  <path class="cls-1" d="M1056.13,140.64c-11.98-6.31,11.16-16.51,12.7-18.27-1.7,1.95,11.31,18.27-12.7,18.27"/>
  <path class="cls-1" d="M1130.33,173.23c-30.86-13.99,6.05-31.22,5.64-23.35-.4,7.46,16.6,23.35-5.64,23.35"/>
  <path class="cls-2" d="M769.44,54.11c.62,20.4,1.69,66.72,3.34,87.07,1.5,18.36,1.59,38.98,7.64,56.52,3.47,10.06,19.52,5.73,16.03-4.42-6.03-17.45-5.97-38.02-7.39-56.31-1.47-18.95-2.45-63.87-3-82.86-.31-10.66-16.93-10.71-16.62,0"/>
</svg>