<?xml version="1.0" encoding="UTF-8"?>
<svg id="b" data-name="Ebene 2" xmlns="http://www.w3.org/2000/svg" viewBox="0 0 155.86623159 203.19382758">
  <defs>
    <style>
      .d {
        fill: #fff;
      }
    </style>
  </defs>
  <g id="c" data-name="Ebene 1">
    <g>
      <path class="d" d="m103.22892913,12.76184364c-1.31600952.38098145-15.69900513,4.54800415-15.96100616,4.61898804-.43899536.11999512-1.54499817.33999634-2.10799408.99700928-.55800629.66500854-.81100464,1.52099609-.95400238,2.60400391-.80999756,6.16000366.05899811,33.36099243,1.25,46.28898621.02099609.22799683.30799866,4.93400574.95999908,6.41200256.73500061,1.33700562,1.58200073,2.48500061,2.53600311,3.66600037,1.72000122,2.28999329,2.93899536,5.30299377,2.93899536,8.21200562,0,7.97200012-6.24399567,14.23799133-13.99399567,14.23799133-7.74900055,0-14.00400543-6.27200317-14.00400543-14.00698853,0-3.14500427,1.18600464-6.09500122,2.95000458-8.44300842.95399475-1.18099976,1.80099487-2.32899475,2.53499603-3.66600037.82400513-1.86799622.89099884-4.43800354.96900177-6.41200256.49099731-12.58900452,1.2009964-28.3690033,1.52099609-36.7809906.04199982-6.94799805-.96199799-14.59298706.1760025-21.43798828.73799896-7.00802612,8.33100128-11.02102661,14.47800446-8.07501221,5.59299469,2.17300415,10.5369873,5.63598633,15.76100159,8.52099609l.73899841.41299438c2.45599365,1.45901489.97999573,2.54101562.47000122,2.76602173l-.26300049.08499146Z"/>
      <path class="d" d="m77.91092834,191.35782905s-5.93300629,7.64499664-8.86800385,11.49499512c-.04799652.07500458-.31299591.34100342-.69200134.34100342h-22.21199799c-.53399658-.03399658-.89900208-.45999908-.89900208-.91699982v-2.03199768c0-.31300354.19300079-.64700317.50600433-.81999969l23.24404767-11.79489064s.20973762-.10929761.33375476-.18442282c.09697344-.05874309.21604554-.13961257.31177507-.21729735.86447408-.70152308,1.61342085-1.70899671,1.61342085-2.87939321,0-.04799652-.02700043-.42499542-.14299774-1.08200073,0,0-6.49100494-34.88899994-9.20000458-49.02698517-.18000031-1.07901001.52200317-1.72801208,1.40699768-1.57501221,3.16400146,1.03401184,9.33000183,2.22000122,14.62500763,2.22000122,5.00999451,0,11.37599945-1.18598938,14.57099915-2.22000122.88600159-.15299988,1.58799744.4960022,1.40699768,1.57501221-2.70899963,14.13798523-9.19999695,49.02698517-9.19999695,49.02698517-.11500549.65700531-.14200592,1.03400421-.14200592,1.08200073,0,1.17193879.75608998,2.17320953,1.61586665,2.88216491.08091392.06672006.21997642.15734506.30644278.21047006.08678705.05332203.32755043.1843725.32755043.1843725l23.25214667,11.79899656c.31298828.17299652.5059967.50699615.5059967.81999969v2.03199768c0,.45700073-.36500549.88300323-.89801025.91699982h-22.21199036c-.3789978,0-.64499664-.26599884-.69300079-.34100342-2.93499756-3.84999847-8.86799622-11.49499512-8.86799622-11.49499512"/>
      <path class="d" d="m77.90536557,108.40501757c-12.45624386-.00336289-22.59082593-10.13963923-22.59082593-22.59587025,0-4.7594073,1.65881393-9.58948655,4.67193377-13.6002539l.18506139-.23722463c.51241318-.71916709,1.07411558-1.47345318,1.37449607-1.87079124.16093779-.2128857.46995424-.64582354.46995424-.64582354,0,0-.26703691-.79938663-.31012732-.93054835-.01554211-.0473082-.03246948-.09413444-.04880371-.14114403-3.80339732-10.9461046-11.20000509-19.80978699-20.32634267-27.19395621C19.17225374,50.99593927,0,69.98312521,0,96.19271127c0,32.1668481,28.61874706,53.72806626,57.35188357,60.06553973-1.31056273-6.95490954-2.5857895-13.66250579-3.87111775-20.37178349l-.03533597-.20187582c-.54340124-3.24696875.48116219-6.52591058,2.73889064-8.77186894,2.23082537-2.21904243,5.44413959-3.22005283,8.59353332-2.67495731.51144099.08747353.98418313.20355726,1.43505368.35329552,2.19212651.72846264,7.69851799,1.74124313,11.70590963,1.74124313,4.02255029,0,9.52220317-1.0127805,11.71264824-1.74124313.4491891-.14973826.92193124-.26582199,1.44177945-.35497696,3.14266795-.54341408,6.35430073.45759632,8.5851261,2.67663875,2.25772845,2.24595835,3.28229188,5.52490019,2.74057208,8.77186894l-.03701741.20355726c-1.2870097,6.71097198-2.56055502,13.41856823-3.87111775,20.37514638,28.73987512-6.3307477,57.37542377-27.89532875,57.37542377-60.07058406,0-26.20958607-19.17391593-45.196772-41.33069858-55.00330586-9.13755568,7.39278677-16.54018826,16.26549366-20.34010124,27.22859555-.01792726.0517218-.35114235,1.0631139-.35114235,1.0631139,0,0,.25953329.41289631.50284005.74090358.36070887.48627967.73901205,1.00534683,1.29542975,1.74798174l.18674284.24056184c2.85329293,3.79880288,4.49864248,8.36809163,4.65006218,12.90038863.01345154.19348144.02691592.42901179.02691592.69819666,0,12.45961958-10.13626351,22.59587025-22.59587025,22.59587025h-.00504433Z"/>
    </g>
  </g>
</svg>