<?xml version="1.0" encoding="UTF-8"?>
<svg id="Layer_1" xmlns="http://www.w3.org/2000/svg" xmlns:xlink="http://www.w3.org/1999/xlink" viewBox="0 0 301 178">
  <defs>
    <style>
      .cls-1 {
        fill: none;
      }

      .cls-2 {
        fill: #fff;
      }

      .cls-3 {
        clip-path: url(#clippath);
      }
    </style>
    <clipPath id="clippath">
      <rect class="cls-1" x=".4" y=".6" width="300" height="177"/>
    </clipPath>
  </defs>
  <g class="cls-3">
    <g>
      <path class="cls-2" d="M39,46v-10.3h34.7c.4,1.8.6,4,.6,6.3,0,7.8-2.1,17.4-9,24.2-6.7,6.9-15.2,10.6-26.5,10.6C17.9,76.8.3,59.8.3,38.9S17.9,1,38.8,1c11.6,0,19.8,4.5,26,10.4l-7.3,7.3c-4.4-4.2-10.5-7.4-18.7-7.4-15.3,0-27.2,12.3-27.2,27.6s11.9,27.6,27.2,27.6c9.9,0,15.5-4,19.2-7.6,3-2.9,4.9-7.1,5.6-12.9h-24.6Z"/>
      <path class="cls-2" d="M127.2,52.5c0,14.1-11,24.4-24.5,24.4s-24.5-10.4-24.5-24.4,11-24.4,24.5-24.4,24.5,10.2,24.5,24.4ZM116.5,52.5c0-8.8-6.4-14.8-13.8-14.8s-13.8,6-13.8,14.8,6.4,14.8,13.8,14.8,13.8-6.1,13.8-14.8Z"/>
      <path class="cls-2" d="M180.7,52.5c0,14.1-11,24.4-24.5,24.4s-24.5-10.4-24.5-24.4,11-24.4,24.5-24.4,24.5,10.2,24.5,24.4ZM170,52.5c0-8.8-6.4-14.8-13.8-14.8s-13.8,6-13.8,14.8,6.4,14.8,13.8,14.8,13.8-6.1,13.8-14.8Z"/>
      <path class="cls-2" d="M232,29.5v43.8c0,18-10.6,25.4-23.2,25.4-11.8,0-19-8-21.7-14.4l9.3-3.9c1.7,4,5.7,8.7,12.3,8.7,8.1,0,13.1-5,13.1-14.3v-3.5h-.4c-2.4,3-7,5.5-12.9,5.5-12.2,0-23.4-10.6-23.4-24.3s11.2-24.5,23.4-24.5c5.8,0,10.5,2.6,12.9,5.5h.4v-4s10.2,0,10.2,0ZM222.5,52.6c0-8.6-5.7-14.9-13.1-14.9s-13.6,6.3-13.6,14.9,6.2,14.7,13.6,14.7c7.4,0,13.1-6.2,13.1-14.7Z"/>
      <path class="cls-2" d="M250.2,3.9v71.5h-10.7V3.9h10.7Z"/>
      <path class="cls-2" d="M291.6,60.5l8.3,5.5c-2.7,4-9.2,10.8-20.4,10.8-13.9,0-24.2-10.7-24.2-24.4,0-14.5,10.5-24.4,23-24.4s18.9,10.1,20.9,15.5l1.1,2.8-32.7,13.5c2.5,4.9,6.4,7.4,11.8,7.4,5.6.1,9.4-2.6,12.2-6.7ZM266,51.7l21.8-9.1c-1.2-3.1-4.8-5.2-9.1-5.2-5.4.1-13,4.9-12.7,14.3Z"/>
      <path class="cls-2" d="M60,175.1v-69.5h23.9c4.2,0,8,.9,11.4,2.7,3.4,1.7,6.1,4.2,8.1,7.5,2.1,3.2,3.1,6.9,3.1,11.1s-1,7.8-3.1,11.1c-2,3.2-4.7,5.8-8.1,7.6-3.4,1.7-7.2,2.6-11.4,2.6h-13.3v27h-10.6v-.1ZM70.6,138h13.5c2.5,0,4.7-.5,6.4-1.6,1.7-1.1,3.1-2.5,4-4.2,1-1.7,1.5-3.6,1.5-5.4,0-1.9-.5-3.7-1.5-5.3-.9-1.7-2.2-3.1-4-4.2s-3.9-1.6-6.4-1.6h-13.5v22.3ZM113.1,175.1v-49.5h10.5v49.5h-10.5ZM118.3,118.3c-1.9,0-3.6-.7-5-2-1.4-1.4-2-3.1-2-5,0-2,.7-3.7,2-4.9,1.4-1.4,3.1-2,5-2,2,0,3.7.7,5,2,1.4,1.3,2,2.9,2,4.9s-.7,3.6-2,5c-1.3,1.3-2.9,2-5,2ZM128.8,175.1l17.4-25.1-17.1-24.3h12.1l11.3,16.5,10.7-16.5h12.6l-17.4,24.3,17.5,25.1h-12.2l-11.3-17-11.2,17h-12.4ZM201.5,176.6c-4.9,0-9.2-1.1-13-3.4-3.8-2.3-6.8-5.4-9-9.3-2.1-3.9-3.2-8.4-3.2-13.5,0-4.7,1-9.1,3.1-13.1s4.9-7.2,8.6-9.6c3.8-2.5,8.1-3.7,12.9-3.7,5.1,0,9.4,1.1,13,3.3s6.4,5.2,8.2,9c1.9,3.8,2.8,8.1,2.8,12.9,0,.7,0,1.4-.1,1.9,0,.6,0,1-.1,1.4h-38.2c.3,2.7.9,5.1,2,7.1,1.4,2.5,3.3,4.4,5.6,5.7s4.9,1.9,7.6,1.9c3.3,0,6-.7,8.2-2.2,2.3-1.6,4-3.5,5.3-5.7l8.6,4.2c-2.1,3.9-5,7-8.7,9.5-3.5,2.4-8.1,3.6-13.6,3.6ZM187.1,144.7h27.5c-.1-1.2-.4-2.5-1-3.9s-1.4-2.7-2.5-3.9-2.5-2.1-4.2-2.8c-1.7-.8-3.7-1.2-5.9-1.2-2.8,0-5.4.7-7.6,2.2-2.2,1.4-3.9,3.4-5.1,6-.5,1.2-.9,2.4-1.2,3.6ZM231.9,175.1v-69.5h10.5v69.5h-10.5Z"/>
    </g>
  </g>
</svg>