<svg width="71" height="26" viewBox="0 0 71 26" fill="none" xmlns="http://www.w3.org/2000/svg">
<mask id="mask0" mask-type="alpha" maskUnits="userSpaceOnUse" x="0" y="0" width="71" height="26">
<path d="M0 0H70.8245V26H0V0Z" fill="black"/>
</mask>
<g mask="url(#mask0)">
<path fill-rule="evenodd" clip-rule="evenodd" d="M63.654 12.195C63.654 10.3466 64.6469 9.33546 65.8467 9.33546C66.503 9.31996 67.2233 9.6671 67.6395 10.3311V13.5216C67.2078 14.5482 66.503 15.0066 65.6707 15.0066C64.5025 15.0066 63.654 13.8222 63.654 12.195ZM53.8348 1.01114C53.6264 1.37448 53.8186 1.73781 54.075 1.88005C54.2348 1.9744 54.3144 2.14832 54.2031 2.33774C54.0109 2.65389 54.1228 3.01723 54.427 3.19115C54.6664 3.33339 54.9234 3.28551 55.0678 3.20664C55.403 3.04892 55.6909 2.78064 56.0275 2.97005C56.1395 3.03272 56.219 3.15947 56.219 3.28551C56.219 3.68053 55.8191 3.79108 55.5149 3.99668C55.3875 4.07555 55.2114 4.28116 55.2114 4.55014C55.2114 4.89728 55.4832 5.16555 55.8515 5.16555C56.0754 5.16555 56.1874 5.30779 56.1874 5.51269C56.1874 5.79787 56.412 6.14501 56.8436 6.14501C57.2598 6.14501 57.4837 5.79787 57.4837 5.51269C57.4837 5.30779 57.5956 5.16555 57.8203 5.16555C58.1878 5.16555 58.4603 4.89728 58.4603 4.55014C58.4603 4.28116 58.2843 4.07555 58.1561 3.99668C57.8526 3.79108 57.452 3.68053 57.452 3.28551C57.452 3.15947 57.5323 3.03272 57.6442 2.97005C57.9801 2.78064 58.2843 3.04892 58.6047 3.20664C58.7483 3.28551 59.0039 3.33339 59.244 3.19115C59.5489 3.01723 59.6609 2.65389 59.4693 2.33774C59.3567 2.14832 59.437 1.9744 59.5961 1.88005C59.8531 1.73781 60.0446 1.37448 59.8369 1.01114C59.613 0.648511 59.2123 0.632316 58.9567 0.774551C58.7807 0.86961 58.5885 0.853415 58.4927 0.664002C58.2998 0.347844 57.9322 0.25349 57.628 0.427411C57.3886 0.552748 57.2921 0.805533 57.2921 0.963964C57.2598 1.3273 57.3562 1.72162 57.0196 1.91173C56.9077 1.9744 56.764 1.9744 56.6521 1.91173C56.3155 1.72162 56.412 1.3273 56.3796 0.963964C56.3796 0.805533 56.2838 0.552748 56.043 0.427411C55.7395 0.25349 55.3713 0.347844 55.1952 0.664002C55.0833 0.853415 54.8918 0.86961 54.715 0.774551C54.4587 0.632316 54.0588 0.648511 53.8348 1.01114ZM47.8884 11.9894C48.0165 10.0466 49.153 9.33546 49.9691 9.33546C50.4817 9.33546 50.8979 9.61993 50.8979 10.1255C50.8979 11.2155 49.5213 11.926 47.8884 11.9894ZM36.9567 3.38056H37.3411C37.7411 3.38056 37.8847 3.58617 37.8847 3.98049V13.6011C37.8847 15.2439 38.8459 16.2705 41.2301 16.2705C43.2629 16.2705 44.4156 15.2439 44.4156 13.5061V12.3055C44.7515 12.4161 45.1035 12.5266 45.5042 12.6055C45.5676 14.4855 46.9603 16.2705 49.5375 16.2705C51.4901 16.2705 52.8026 14.9277 53.4588 13.3955L53.0906 13.0794C52.2576 14.3116 51.2978 14.9594 50.1614 14.9594C49.0256 14.9594 48.0644 14.2327 47.8884 12.7956C51.6344 12.621 53.1384 9.54106 54.1792 9.54106C54.3869 9.54106 54.5953 9.63612 54.5953 10.0466V16.1283H57.7646V15.4171H57.2837C56.9795 15.4171 56.8352 15.2277 56.8352 14.7066V11.8471C56.8352 11.0888 57.4281 10.0466 57.8759 9.92059C57.9724 10.2994 58.4364 10.7888 59.268 10.7888C60.8213 10.7888 61.8782 9.06718 61.8782 7.78776C61.8782 6.25556 61.11 5.7345 60.7734 5.7345C60.3728 5.7345 60.2615 6.04995 60.2615 6.25556C61.3015 6.25556 61.1896 8.29333 60.3728 8.29333C59.8447 8.29333 59.7651 7.59835 58.9328 7.59835C58.2118 7.59835 57.6682 8.02505 57.6682 8.95663C57.3633 9.16224 56.9478 9.61993 56.8521 9.73048H56.8352V9.63612C56.8352 8.71933 56.212 8.10392 55.2671 8.10392C53.8905 8.10392 53.0751 9.11436 52.002 10.11C52.0182 10.0149 52.0344 9.92059 52.0344 9.82553C52.0344 8.78271 51.0894 8.10392 49.841 8.10392C47.4568 8.10392 45.8401 9.6833 45.5521 11.7999C45.0711 11.6894 44.7191 11.5633 44.4156 11.4204V8.22996H41.8223V9.61993C41.8223 10.2677 42.3187 11.1211 43.3749 11.7844V13.3005C43.3749 14.5961 42.7503 15.1009 41.7258 15.1009C40.59 15.1009 40.126 14.4693 40.126 13.5061V2.67009H36.9567V3.38056ZM25.9285 3.38056H26.3136C26.7129 3.38056 26.8572 3.58617 26.8572 3.98049V14.4067C26.8572 15.3065 27.3698 16.1283 28.6021 16.1283H34.2359C35.8843 16.1283 36.8771 15.2439 36.8771 13.7743C36.8771 12.4161 35.9321 11.895 34.9562 11.3732C33.9162 10.8205 32.9227 10.5367 32.9227 9.98326C32.9227 9.6833 33.1635 9.44601 33.6916 9.44601C34.476 9.44601 35.3878 9.92059 35.9321 10.4733L37.213 8.22996H32.9712C31.6425 8.22996 30.8264 9.02 30.8264 10.11C30.8264 11.4683 31.8665 12.0055 33.6275 12.8899C34.3154 13.2371 34.8759 13.5216 34.8759 14.1222C34.8759 14.6278 34.5879 14.9904 33.8514 14.9904C32.2509 14.9904 31.2588 12.6843 31.2588 12.6843H30.7469V15.3227H29.6097C29.1942 15.3227 29.0978 15.1171 29.0978 14.7221V2.67009H25.9285V3.38056ZM14.5327 23.3943C16.9331 23.2365 19.5109 23.916 21.2551 26.0003C22.4078 24.8793 26.377 21.467 34.2683 21.467C41.7258 21.467 49.2016 24.3111 55.1713 24.3111C60.1967 24.3111 62.5499 21.9254 62.9654 19.2553C63.5421 20.0137 64.6786 20.6932 65.9587 20.646C68.4556 20.646 69.8807 18.6399 69.8807 16.3965V9.65161C69.8807 9.14604 69.9927 8.94114 70.4088 8.94114H70.825V8.22996H68.5682C68.0084 8.22996 67.7676 8.46725 67.6718 8.86228C67.1909 8.45176 66.503 8.10392 65.4947 8.10392C63.2541 8.10392 61.1734 9.4622 61.1734 12.3534C61.1734 14.6594 62.7422 16.2705 65.063 16.2705C66.1671 16.2705 67.0635 15.7487 67.6395 15.0545V16.586C67.6395 18.7026 66.7755 19.5243 65.3672 19.5243C63.942 19.5243 62.9823 18.592 62.9499 17.4394H62.2774C62.3422 20.8671 60.5488 22.8098 55.5396 22.8098C48.1609 22.8098 41.4702 17.7238 30.3786 17.7238C20.5186 17.7238 14.5327 23.3943 14.5327 23.3943ZM10.1473 12.195C10.1473 10.3466 11.1395 9.33546 12.34 9.33546C12.9322 9.31996 13.5723 9.60444 13.9884 10.1255V13.8222C13.5406 14.6432 12.916 15.0066 12.164 15.0066C10.9789 15.0066 10.1473 13.8222 10.1473 12.195ZM7.66595 12.3534C7.66595 14.6594 9.23476 16.2705 11.5563 16.2705C12.628 16.2705 13.5082 15.7649 14.1004 15.1009C14.3567 15.7649 15.0608 16.2705 15.9579 16.2705C17.5577 16.2705 18.6625 15.0545 19.2061 13.5061V16.1283H22.3909V15.4171H21.9754C21.5593 15.4171 21.4473 15.2115 21.4473 14.7059V11.9739C21.4473 10.5367 22.6803 9.03549 24.0245 9.03549C24.4089 9.03549 24.6645 9.2573 24.6645 9.54106C24.6645 9.79385 24.4885 9.98326 24.216 9.98326C23.9125 9.98326 23.8639 9.6833 23.7365 9.6833C23.3203 9.6833 22.8077 10.0621 22.8077 10.7888C22.8077 11.4521 23.4154 12.021 24.2484 12.021C25.3842 12.021 26.1207 11.0888 26.1207 9.96777C26.1207 8.90945 25.2729 8.10392 24.216 8.10392C23.0795 8.10392 21.9754 8.82988 21.4473 9.63612V9.2573C21.4473 8.64118 21.1431 8.22996 20.5186 8.22996H18.1653V8.94114H18.678C18.9983 8.94114 19.2061 9.14604 19.2061 9.65161V11.6577C18.7744 13.4744 17.8457 15.0066 16.8697 15.0066C16.55 15.0066 16.229 14.8489 16.229 14.4383V9.65161C16.229 9.14604 16.3254 8.94114 16.7416 8.94114H17.1577V8.22996H14.9172C14.4848 8.22996 14.1968 8.43557 14.0687 8.78271C13.5877 8.40388 12.916 8.10392 11.9725 8.10392C9.73118 8.10392 7.66595 9.4622 7.66595 12.3534ZM0 9.92059C0 16.0649 4.65717 20.9777 11.3958 20.9777C15.6692 20.9777 18.1182 18.9716 19.1589 17.8027L18.8068 17.4394C17.7823 18.3555 15.8459 19.6504 12.8526 19.6504C7.66595 19.6504 4.96135 15.86 4.96135 11.9739C4.96135 6.96603 8.5947 4.61281 11.9084 4.61281C13.8771 4.61281 15.1249 5.11838 16.374 6.14501C17.5422 4.09104 18.7258 2.05397 19.8947 0H5.48946C3.10525 1.23224 0 5.11838 0 9.92059Z" fill="white"/>
</g>
</svg>
