<?xml version="1.0" encoding="utf-8"?>
<!-- Generator: Adobe Illustrator 27.8.1, SVG Export Plug-In . SVG Version: 6.00 Build 0)  -->
<svg version="1.1" id="Layer_1" xmlns="http://www.w3.org/2000/svg" xmlns:xlink="http://www.w3.org/1999/xlink" x="0px" y="0px"
	 viewBox="0 0 102 115" style="enable-background:new 0 0 102 115;" xml:space="preserve">
<style type="text/css">
	.st0{fill:#FFFFFF;}
</style>
<path class="st0" d="M83.7,23.5c-4.4-0.4-9.1-0.7-13.8-0.7c-17.4,0-36.2,3.8-51.6,17.9V65c0,7.9,2.9,14.5,8.5,19
	c4.9,4,20,10.8,24.2,12.7c4.2-1.8,19.2-8.6,24.2-12.7c5.6-4.6,8.5-11,8.5-19V23.5 M21.5,62.5V42.8h6.3v20c0,1.8,0.4,4.4,3.3,4.4
	c1.3,0,2.3-0.3,3-0.8V42.8h6.3V70c-2.4,1.6-5.6,2.5-9.4,2.5C24.6,72.5,21.5,69.1,21.5,62.5 M49.8,85.2h-6.3V44.4
	c2.3-1.5,5-2.2,8.4-2.2c7.5,0,11.6,5.7,11.6,14.8c0,9.1-4,15.4-10.9,15.4c-1.3,0-2.2-0.2-2.8-0.4V85.2z M49.8,66.9
	c0.4,0.2,1.2,0.4,2,0.4c3.6,0,5.3-3.3,5.3-10.2c0-7-1.5-9.9-5.1-9.9c-0.8,0-1.7,0.2-2.2,0.5V66.9z M64.9,50.3c0-5.1,4.3-8,8.4-8.2
	c3.4-0.1,5.8,1.2,6.9,2v5.4c-1.3-1.3-3.4-2.6-5.6-2.6c-1.8,0-3.6,0.8-3.7,3c-0.1,2.3,1.8,3.2,4.1,4.5c5.2,3.1,6.2,5.8,6.1,9.5
	c-0.1,4-2.9,8.4-9.1,8.4c-2.5,0-4.9-0.8-6.9-1.9v-5.8c1.6,1.4,4,2.5,6,2.5c2.3,0,3.8-1.3,3.8-3.5c0-2-1.2-3-3.9-4.7
	C65.9,56.2,65,53.7,64.9,50.3 M24.7,86.6C18.3,81.4,15,73.9,15,65V22.6c10-5.3,22.1-8,36-8s26,2.7,36,8V65c0,8.9-3.3,16.4-9.7,21.6
	c-5.8,4.7-24.2,12.8-26.3,13.7C48.9,99.4,30.5,91.3,24.7,86.6z M74,95.5v3.7h0.7v-1.5h0.1c0,0.1,1,1.5,1,1.5h0.8c0,0-1-1.5-1.1-1.6
	c0.5-0.1,0.8-0.5,0.8-1c0-0.5-0.3-1.1-1.2-1.1H74z M74.9,96c0.6,0,0.6,0.3,0.6,0.5c0,0.3-0.1,0.6-0.9,0.6h-0.1V96H74.9z M77.5,97.3
	c0,1.4-1.1,2.5-2.5,2.5c-1.4,0-2.5-1.1-2.5-2.5c0-1.4,1.1-2.5,2.5-2.5C76.4,94.8,77.5,96,77.5,97.3 M75,94.3c-1.7,0-3,1.4-3,3
	c0,1.7,1.4,3,3,3c1.7,0,3-1.4,3-3C78.1,95.7,76.7,94.3,75,94.3"/>
</svg>
