<?xml version="1.0" encoding="UTF-8"?>
<svg id="Layer_1" data-name="Layer 1" xmlns="http://www.w3.org/2000/svg" viewBox="0 0 204.6 158">
  <defs>
    <style>
      .cls-1 {
        fill: #fff;
        stroke-width: 0px;
      }
    </style>
  </defs>
  <g>
    <path class="cls-1" d="M98.9,98.6c11.1,0,14.7,0,20.2-1.5,1.9-.7,5.3-1.6,7.8-5.4,4.6-7.7,4.6-22.2,4.6-29.1s0-19.3-4.6-26.9c-2.5-3.9-5.9-5-7.8-5.5-5.6-1.5-9.3-1.4-20.2-1.4h0c-11,0-14.6,0-20.2,1.4-2,.5-5.3,1.6-7.8,5.5-4.6,7.6-4.6,19.9-4.6,26.9s0,21.4,4.6,29.1c2.5,3.9,5.9,4.8,7.8,5.4,5.5,1.5,9.1,1.5,20.2,1.5h0ZM99,0C103.9,0,107,.8,108.4,1.1c-.7,6.1-.5,11,0,12.4,1.6,4.7,10.8,6.9,14.5,4.7,4.1-2.4,3.2-9.8,3.2-14.7,0,0,6,1.4,9.7,2.8,3,1.1,7.4,3.3,7.4,3.3.9,6.2,0,15.3-6.1,18.4,4.7,4.6,6.2,10,8.2,20.1,1.6,9,1.2,15.3,1.1,20.6-.5,7.1-.5,11-2.2,17.5-2.5,7.4-3.9,10.9-9,16.1-10.2,10.5-26.8,9.9-36.3,9.9s-26.1.6-36.3-9.9c-5-5.2-6.5-8.6-9-16.1-1.7-6.5-1.7-10.3-2.2-17.5,0-5.3-.5-11.5,1.1-20.6,2-10.1,3.6-15.5,8.2-20.1-6.2-3.1-7-12.2-6.1-18.4,0,0,4.4-2.2,7.4-3.3,3.7-1.4,9.7-2.8,9.7-2.8,0,4.9-.9,12.3,3.2,14.7,3.7,2.2,12.9,0,14.5-4.7.5-1.4.7-6.3,0-12.4,1.3-.3,4.5-1.1,9.4-1.1"/>
    <path class="cls-1" d="M99,67.5c9.5,0,9.3,0,9.3,3v18.9h13v-52.4h-13v15.7c0,3.1.2,3.1-9.3,3.1h0c-9.5,0-9.3,0-9.3-3.1v-15.7h-13v52.4h13v-18.9c0-3-.2-3,9.3-3h0Z"/>
  </g>
  <g>
    <path class="cls-1" d="M200.6,125.7h.5c.5,0,1.1,0,1.1-.6s-.4-.6-1-.6h-.6v1.2ZM202.6,125c0,.3-.2.6-.4.8-.2,0-.3.1-.6.2.5.2.6.3,1.1,1.5h-.5c-.6-1.2-.7-1.4-1.5-1.4h-.2v1.4h-.4v-3.3h1.4c1.1,0,1.1.8,1.1.9M201.4,123c-1.5,0-2.8,1.2-2.8,2.7s1.2,2.7,2.8,2.7,2.8-1.2,2.8-2.7-1.2-2.7-2.8-2.7M201.4,128.8c-1.7,0-3.2-1.4-3.2-3.1s1.4-3.1,3.2-3.1,3.2,1.4,3.2,3.1-1.4,3.1-3.2,3.1"/>
    <path class="cls-1" d="M48.7,128.7h-5.7v13.5c0,3.8-1.6,5.8-4.8,5.8s-2.2-.5-2.8-1.1c-.8-.8-1.2-2.2-1.2-4.1v-14.1h-5.7v14.6c0,3.2.7,5.5,2.3,7,1.5,1.4,3.2,2.1,6.2,2.1s4.6-1.4,6-3.2v2.6h5.6v-23.1h.1Z"/>
    <path class="cls-1" d="M137.2,134.9c0-1.7-.6-3.2-1.7-4.3-1.6-1.6-4-2.5-7.3-2.5s-9,.7-9.7,7h5.7c0-2.9,3.7-2.7,3.7-2.7,1.2,0,2.3.4,3.1,1,.5.4.8,1,.9,2,0,1.6-.7,2.3-6,2.8-4.1.4-9,1.5-9,7.3s.6,3.5,1.9,4.7c1.5,1.5,3.7,2.2,6.3,2.2s5.4-.8,7.1-2.8l.3,2.1h5.5v-.9c-.7-.5-.5-2.8-.5-2.8v-13.2l-.3.1ZM122.4,145.3c-.1-1.7.9-3,3.6-3.4.7-.1,1.4-.2,2.1-.3,1.1-.2,2.3-.4,3.4-1.2v3.5c0,2.9-2.9,3.9-5,3.9s-3.9-.8-4.1-2.5"/>
    <path class="cls-1" d="M94.9,158v-29.3h-5.4v2.9c-1.5-2-3.5-3.5-6.5-3.5-6.8,0-10.7,4.7-10.7,12.3s1.2,7.3,3.4,9.4c1.7,1.7,3.7,2.6,6.4,2.6s5.3-1.4,7-3.5v9.1h5.8ZM83.7,147.8c-1.6,0-2.6-.5-3.6-1.5-1.4-1.3-2.1-3.5-2.1-6.1s.8-4.7,2.2-6.1c1-1,2-1.5,3.5-1.5,3.3,0,5.1,2.1,5.6,5.9,0,.6.1,2.7,0,3.1-.4,4.1-2.1,6.3-5.6,6.3"/>
    <polygon class="cls-1" points="0 151.8 6.2 151.8 6.2 138.1 19.1 138.1 19.1 151.8 25.3 151.8 25.3 121 19.1 121 19.1 132.7 6.2 132.7 6.2 121 0 121 0 151.8"/>
    <path class="cls-1" d="M61.3,147.9c-2.4,0-4.3-1-4.7-3.1h-5.7c.3,5.8,6.2,7.6,10.3,7.5,4.1,0,6-1,7.8-2.9,1.3-1.3,1.9-2.9,1.9-4.8,0-4.5-3.5-6-7.4-6.9l-1.2-.3c-3.1-.6-5.6-1.2-5.4-2.9.1-1.8,2.1-2.1,3.6-2.2,1.5,0,2.8.2,3.7,2h5.9c-.6-4.5-4.8-6.4-9.2-6.4s-9.5,1.8-9.5,6.7,3.3,6.1,7.2,6.9c.5.1,1.1.2,1.6.3,3,.6,5.2,1.2,5.2,3.1s-1.6,2.7-4,2.7"/>
    <polygon class="cls-1" points="118.3 128.7 112.4 128.7 107.4 146.4 102.2 128.7 96 128.7 104.1 151.8 110.2 151.8 118.3 128.7"/>
    <path class="cls-1" d="M150.7,127.9c-1.8.3-4,2.3-5,4.8v-4h-5.4v23.1h5.7v-11c0-2.5.2-4.4,1.3-5.9.9-1.1,2.5-2.2,4-2.2,1.6,0,2.5.4,2.5.4v-5s-1.5-.4-3.1-.1"/>
    <path class="cls-1" d="M176.1,136c0-2.4-.7-4.4-2.1-5.7-1.5-1.4-3.5-2.2-6.2-2.2s-4.9,1.5-6.6,4.1v-3.5h-5.4v23.1h5.7v-13.6c0-1.7.4-3.2,1.4-4.2.9-.9,2.3-1.4,3.9-1.4,2.6,0,3.5,1.5,3.6,4.8v14.4h5.6v-15.8h.1Z"/>
    <path class="cls-1" d="M198.3,134.9c0-1.7-.6-3.2-1.7-4.3-1.6-1.6-4.3-2.5-7.7-2.5s-9,.7-9.7,7h5.7c0-2.9,3.7-2.7,3.7-2.7,1.2,0,2.7.4,3.5,1,.5.4.8,1,.9,2,0,1.6-.7,2.3-6,2.8-4.1.4-9,1.5-9,7.3s.6,3.5,1.9,4.7c1.5,1.5,3.7,2.3,6.3,2.3s5.3-.8,7.1-2.8l.3,2.1h5.5v-.9c-.7-.5-.5-2.8-.5-2.8v-13.2h-.3ZM183.5,145.3c-.1-1.7.9-3,3.6-3.4.7-.1,1.4-.2,2.1-.3,1.1-.2,2.3-.4,3.4-1.2v3.5c0,2.9-2.9,3.9-5,3.9s-3.9-.8-4.1-2.5"/>
  </g>
</svg>