<?xml version="1.0" encoding="UTF-8"?><svg id="Layer_1" xmlns="http://www.w3.org/2000/svg" xmlns:xlink="http://www.w3.org/1999/xlink" viewBox="0 0 311.12 164.01"><defs><style>.cls-1{fill:none;}.cls-1,.cls-2{stroke-width:0px;}.cls-3{clip-path:url(#clippath);}.cls-2{fill:#fff;}</style><clipPath id="clippath"><rect class="cls-1" width="311.12" height="164"/></clipPath></defs><g class="cls-3"><path class="cls-2" d="M157.78,97.5h4.61l-.21-5.5-4.4,5.5Z"/><path class="cls-2" d="M184.06,67.83c-12.28,11.98-30.65,4.33-28.77-10.37,1.45-11.35,15.32-22.64,25.82-28.78.06-.03.05-.09.01-.13-1.37-1.31-4.23-4.28-6.07-6.51-5.08-6.14-14-6.39-19.31.34l-30.22,2.82c-.12.01-.12.18,0,.19l32.4,1.88c5.74.33,7.62,5.54,2.07,9.75-20.57,15.61-24.24,32.15-19.65,45.24.04.08-.09.15-.14.08-1.89-2.68-3.31-5.96-4.07-9.41-9.9-6.22-17.91-18.07-17.91-32.68,0-21.26,17.28-38.76,38.67-38.76s38.68,17.5,38.68,38.76c0,11.49-5.03,21.26-11.51,27.58ZM191.63,104.2h-18.6l6.6-17.21h8.18l-5.21,13.56h10.42l-1.39,3.65ZM162.65,104.2l-.14-3.39h-7.4l-2.72,3.39h-6.76l13.72-15.93c.66-.76,1.63-1.28,2.52-1.28h7.32l1.64,17.21h-8.19.01ZM134.6,104.78c-2.21,0-4.12-.23-5.69-.58l1.39-3.65c3.75.44,6.98.11,8.23-3.17l3.98-10.39h8.19l-4.39,11.45c-2.24,5.85-7.77,6.34-11.71,6.34M216.76,65.51c.39-3.82.29-9.28-.3-13.32,0-.08-.09-.08-.11,0-1.22,5.87-5.01,13.81-13.2,20.29-.07.06-.16-.04-.09-.12,7.19-7.68,11.46-17.14,12.13-26.88-1.35-5.37-3.45-10.55-6.1-15.14-.03-.06-.1-.04-.09.04,1.46,9.85-.87,22.86-10.41,33.4-.06.07-.16-.01-.1-.09,8.21-11.84,10.35-26.26,6.76-39.24C194.29,9.62,176.71,0,156.89,0s-37.38,9.62-48.32,24.44c-3.58,12.97-1.45,27.39,6.76,39.24.06.08-.05.17-.11.09-9.54-10.55-11.85-23.56-10.39-33.4,0-.07-.07-.1-.1-.04-2.64,4.58-4.74,9.77-6.09,15.14.66,9.75,4.94,19.2,12.11,26.88.07.07-.02.18-.09.12-8.19-6.48-11.98-14.42-13.21-20.29-.02-.08-.1-.08-.1,0-.59,4.04-.69,9.5-.3,13.32,2.07,6.48,6.48,11.92,10.99,15.84.08.07.01.18-.08.13-5.04-3.15-7.86-6.22-9.78-8.94-.04-.06-.1-.04-.09.04,5.55,27.03,29.72,47.84,58.8,47.84s53.28-20.81,58.81-47.84c.02-.07-.04-.09-.08-.04-1.92,2.72-4.75,5.79-9.8,8.94-.08.06-.15-.06-.07-.13,4.51-3.92,8.92-9.36,10.99-15.84"/><path class="cls-2" d="M308.34,158.04c-1.72,4.51-7.68,5.9-14.12,5.9s-10.58-1.4-9.61-5.9h8.18c-.21,1.21.51,1.97,2.93,1.97s3.98-.78,4.43-1.97c1.13-2.94-15.07-.07-12.49-6.8,1.44-3.77,7.12-5.54,13.53-5.54s10.06,1.39,9.28,5.53h-8.02c.12-1.11-.21-1.95-2.63-1.95s-3.7.86-4.12,1.95c-1.15,3,15.21.08,12.63,6.8"/><path class="cls-2" d="M165.09,163.43h-8.2l6.59-17.2h8.18l-6.58,17.2Z"/><path class="cls-2" d="M227.01,163.43h-8.2l6.59-17.2h8.18l-6.58,17.2Z"/><path class="cls-2" d="M279.73,163.43h-19.89l6.59-17.2h19.9l-1.27,3.3h-11.71l-1.32,3.47h9.75l-1.27,3.3h-9.74l-1.33,3.48h11.71l-1.4,3.65Z"/><path class="cls-2" d="M117.07,163.43h-6.62l-5.55-10.16-3.89,10.16h-6.62l6.59-17.2h7.69l4.9,9.04,3.46-9.04h6.62l-6.59,17.2Z"/><path class="cls-2" d="M254.76,163.43h-6.62l-5.55-10.16-3.89,10.16h-6.6l6.58-17.2h7.69l4.89,9.04,3.48-9.04h6.61l-6.58,17.2Z"/><path class="cls-2" d="M17.67,157.67c-2.24,5.85-7.76,6.34-11.7,6.34-2.2,0-4.1-.22-5.68-.58l1.4-3.65c3.74.44,6.95.11,8.21-3.17l3.97-10.38h8.19l-4.38,11.45h0Z"/><path class="cls-2" d="M64.65,151.71c-.49,1.26-2.03,2.17-3.53,2.17h-4.54l1.67-4.36h4.55c1.49,0,2.31.93,1.84,2.19ZM64.06,146.22h-12.72l-6.59,17.2h8.19l2.39-6.24h4.55c7.57,0,11.63-2.03,12.96-5.47,1.32-3.45-1.19-5.49-8.76-5.49"/><path class="cls-2" d="M190.06,151.71c-.48,1.26-2.02,2.17-3.51,2.17h-4.54l1.67-4.36h4.55c1.49,0,2.32.93,1.83,2.19ZM189.48,146.22h-12.72l-6.6,17.2h8.19l2.39-6.24h2.48l1.61,6.24h8.94l-2.18-6.87c3.62-.85,5.79-2.52,6.66-4.85,1.33-3.45-1.19-5.49-8.76-5.49"/><path class="cls-2" d="M207.41,159.78l5.2-13.56h-8.18l-6.58,17.2h18.58l1.4-3.65h-10.42Z"/><path class="cls-2" d="M29.62,156.74l4.41-5.5.2,5.5h-4.62ZM41.03,146.23h-7.31c-.89,0-1.87.52-2.52,1.28l-13.72,15.93h6.76l2.73-3.39h7.38l.13,3.39h8.19l-1.65-17.2Z"/><path class="cls-2" d="M79.28,156.74l4.41-5.5.19,5.5h-4.6ZM90.69,146.23h-7.33c-.89,0-1.86.52-2.52,1.28l-13.71,15.93h6.76l2.73-3.39h7.38l.13,3.39h8.19l-1.64-17.2h0Z"/><path class="cls-2" d="M141.78,156.74l4.41-5.5.2,5.5h-4.61ZM153.19,146.23h-7.33c-.89,0-1.86.52-2.51,1.28l-13.72,15.93h6.76l2.72-3.39h7.39l.13,3.39h8.19l-1.64-17.2h0Z"/></g></svg>