<svg id="Layer_1" data-name="Layer 1" xmlns="http://www.w3.org/2000/svg" viewBox="0 0 138.54 48.99"><defs><style>.cls-1{fill:#fff;}</style></defs><path class="cls-1" d="M101.5,24.53,97.56,10.91a15.73,15.73,0,0,1-.34-2.37h-6.3A19,19,0,0,1,89.63,11c-.33.6-4.13,5.68-7.09,9.53h0l-4.17,5.6-.51-1.58c-.28-1-.87-3-.87-3L84.48,12a19.73,19.73,0,0,1,3.24-3.47H81.3a4.38,4.38,0,0,1-.65,2c-.31.47-5.59,7.09-5.59,7.09s-1.66-6-2-7a6.73,6.73,0,0,1-.25-2.09h-7.7A21.38,21.38,0,0,1,66.32,11l3.8,11.74-3,3.86-.34-1.07c0-.07-1-3-1.94-6.22-1.1-3.55-2.25-7.36-2.36-7.65a9.41,9.41,0,0,1-.22-1.41c-.11-.86-.18-1.77-.18-1.77H55.48a36.9,36.9,0,0,1-2.17,4.07c-.34.51-4.16,5.62-8.37,11.08l-.63.79c-1.05,1.41-2.16,2.86-3.2,4.22L40,30.09c-.64.79-1.48,1.88-2.36,2.95-1.57,2-3.15,4-3.76,4.73-.25.29-.63.7-1,1.11l-1.57,1.58h6.38a15.16,15.16,0,0,1,.68-1.39l.14-.24c.61-.9,1.3-1.87,1.47-2,.32-.28,7.63-9.85,7.63-9.85H60.37s1.06,3,2,5.83c-1,1.35-3.47,4.5-4.25,5.43-.59.69-2.29,2.3-2.29,2.3h5.52l.07-.22a10.67,10.67,0,0,1,.71-1.41c.07-.12.15-.27.27-.44s.21-.32.35-.51.49-.65.79-1l.41-.53.11-.14.1.18.2.63a.83.83,0,0,0,.1.29,1.67,1.67,0,0,0,.06.2c.14.5.28,1.13.41,1.84.1.55.16,1,.17,1.11h7.41l.09-.21a9.29,9.29,0,0,1,.7-1.41c.06-.12.16-.27.27-.44s.21-.32.35-.51.48-.66.78-1l.41-.53.12-.14h0v.17l.21.63a.83.83,0,0,0,.1.29.64.64,0,0,1,0,.2,17.83,17.83,0,0,1,.42,1.84c.1.55.15,1,.17,1.11h7.33s-1.16-2-1.42-2.67c-.12-.3-1.63-5-2.28-7l1.93-2.57.94-1.2H95.4s3.4,9.41,3.75,10.66a13.67,13.67,0,0,1,.38,2.85h7.77C106.07,39.6,103,28.71,101.5,24.53ZM59.1,23.18H50.62s5.38-6.55,6.26-8.51c.1-.21.12-.05.12.06A9.69,9.69,0,0,0,57.17,17c.29,1.15,1.95,6.23,1.95,6.23ZM70.37,36.63c-.29-.78-.59-1.66-.9-2.58l-.91-2.92,2.29-3,.79-1,1.84,5.37C72.88,33.31,71.46,35.22,70.37,36.63ZM85.56,23.24s5.38-6.55,6.27-8.52c.1-.22.11-.05.11.06A9.2,9.2,0,0,0,92.11,17c.29,1.15,1.94,6.27,1.94,6.27Z"/></svg>