<?xml version="1.0" encoding="utf-8"?>
<!-- Generator: Adobe Illustrator 23.1.1, SVG Export Plug-In . SVG Version: 6.00 Build 0)  -->
<svg version="1.1" id="Layer_1" xmlns="http://www.w3.org/2000/svg" xmlns:xlink="http://www.w3.org/1999/xlink" x="0px" y="0px"
	 viewBox="0 0 611.4 394.9" style="enable-background:new 0 0 611.4 394.9;" xml:space="preserve">
<style type="text/css">
	.st0{fill:#FFFFFF;}
</style>
<g>
	<path class="st0" d="M249.8,291.3c0-5.6-4.5-10.1-10.1-10.1c-4.1,0-7.6,2.5-9.2,6c-6.5-3.8-14.1-6-22.2-6
		c-24.4,0-44.3,19.9-44.3,44.3c0,24.4,19.9,44.3,44.3,44.3c8.1,0,15.7-2.2,22.2-6c1.6,3.5,5.1,6,9.2,6c5.6,0,10.1-4.5,10.1-10.1
		V291.3z M208.3,349.6c-13.3,0-24.1-10.8-24.1-24.1s10.8-24.1,24.1-24.1c9.3,0,17.3,5.3,21.3,12.9v22.3
		C225.6,344.3,217.6,349.6,208.3,349.6z"/>
	<path class="st0" d="M543.4,369.8c-5.6,0-10.1-4.5-10.1-10.1v-68.4c0-5.6,4.5-10.1,10.1-10.1s10.1,4.5,10.1,10.1v68.4
		C553.4,365.2,548.9,369.8,543.4,369.8z"/>
	<path class="st0" d="M419.8,291.3c0-5.6-4.5-10.1-10.1-10.1c-4.1,0-7.6,2.5-9.2,6c-6.5-3.8-14.1-6-22.2-6
		c-24.4,0-44.3,19.9-44.3,44.3c0,24.4,19.9,44.3,44.3,44.3c8.1,0,15.7-2.2,22.2-6c1.6,3.5,5.1,6,9.2,6c5.6,0,10.1-4.5,10.1-10.1
		V291.3z M378.3,349.6c-13.3,0-24.1-10.8-24.1-24.1s10.8-24.1,24.1-24.1c9.3,0,17.3,5.3,21.3,12.9v22.3
		C395.6,344.3,387.6,349.6,378.3,349.6z"/>
	<path class="st0" d="M476.5,281.2c-7.7,0-15,2-21.3,5.5v-32.8c0-5.6-4.5-10.1-10.1-10.1s-10.1,4.5-10.1,10.1v105.8
		c0,5.6,4.5,10.1,10.1,10.1c4.1,0,7.6-2.5,9.2-6c6.5,3.8,14.1,6,22.2,6c24.4,0,44.3-19.9,44.3-44.3
		C520.7,301.1,500.9,281.2,476.5,281.2z M476.5,349.6c-9.3,0-17.3-5.3-21.3-12.9v-22.3c4-7.7,12.1-12.9,21.3-12.9
		c13.3,0,24.1,10.8,24.1,24.1S489.8,349.6,476.5,349.6z"/>
	<circle class="st0" cx="543.4" cy="255.4" r="14"/>
	<path class="st0" d="M155.4,280.4c-4.9-2-10.8,0-13.4,4.6c-0.5,0.9-0.9,1.8-1.1,2.7c-0.5,1.8-1,3.5-1.7,5.2l-17.3,40.7l-17.9-42.1
		c-1.6-3.7-5.2-6.1-9.2-6.1h0c-4,0-7.7,2.4-9.3,6.1l-18.3,42.3L50,293.2c-0.7-1.6-1.3-3.3-1.7-5.1c-0.8-3.9-3.8-7.2-8.1-8.3
		c-4.5-1-9.2,1-11.6,5c-2.2,3.8-1.9,8.1,0.2,11.4c1.1,1.7,2.1,3.5,2.9,5.3l26.1,62c1.5,3.7,5.2,6.2,9.2,6.2c0,0,0.1,0,0.1,0
		c4,0,7.7-2.4,9.3-6.1l18.4-42.6l18.1,42.5c1.6,3.7,5.2,6.1,9.3,6.1h0.1c4.1,0,7.7-2.5,9.3-6.2l26.1-62c0.8-1.9,1.9-3.8,3-5.6
		c0.3-0.4,0.5-0.9,0.7-1.4C163.5,289.1,160.9,282.7,155.4,280.4z"/>
	<path class="st0" d="M296.2,315.4c-2.3-0.2-13.5-1.3-13.5-6.4c0-6.9,7.5-7.7,10.8-7.7c6.8,0,9.8,2.6,10.4,3.1
		c1.8,2.1,4.6,3.5,7.6,3.5c5.6,0,10.1-4.5,10.1-10.1c0-2.3-0.8-4.4-2.1-6.2l0,0c-0.9-1.1-8.8-10.5-26-10.5
		c-18.2,0-30.9,11.5-30.9,27.9c0,5.6,2.3,24.1,32.1,26.5c4.1,0.3,11,1.7,11,7.2c0,6.7-11.7,6.8-12.2,6.8c-9.3,0-14.6-3.6-15.5-4.2
		c-1.8-1.6-4.1-2.6-6.7-2.6c-5.6,0-10.1,4.5-10.1,10.1c0,3.2,1.5,6,3.8,7.9l0,0c1.1,0.9,11.1,8.9,28.5,8.9c4.1,0,12.2-0.6,19.6-5
		c8.2-4.8,12.8-12.6,12.8-22C325.8,327.6,314.2,316.9,296.2,315.4z"/>
	<g>
		<path class="st0" d="M578.2,250.4c0,4.5-2.4,6.7-6.5,6.7c-4,0-6.4-2.1-6.4-6.7c0-4.5,2.4-6.6,6.4-6.6
			C575.8,243.8,578.2,245.9,578.2,250.4z M576.7,250.4c0-3.8-1.8-5.4-5-5.4c-3.2,0-5,1.6-5,5.4c0,3.7,1.7,5.4,5,5.4
			C574.9,255.8,576.7,254.2,576.7,250.4z M570.6,251.3v1.9c0,0.3-0.3,0.7-0.7,0.7c-0.3,0-0.7-0.3-0.7-0.7v-5.6
			c0-0.3,0.3-0.6,0.6-0.6h2.5c1.4,0,2.2,1,2.2,2.1c0,1.3-0.8,2.1-1.7,2.1l1.4,1.6c0.1,0.2,0.1,0.3,0.1,0.4c0,0.3-0.3,0.6-0.6,0.6
			c-0.2,0-0.4-0.1-0.5-0.3l-1.7-2.3H570.6z M572.2,250.2c0.7,0,1-0.3,1-1c0-0.6-0.3-1-1-1h-1.6v2H572.2z"/>
	</g>
</g>
<path class="st0" d="M376.9,50.6c-19.8-19.8-46.2-30.7-74.2-30.7c-28,0-54.4,10.9-74.2,30.7c-19.8,19.8-30.7,46.2-30.7,74.2
	s10.9,54.4,30.7,74.2c19.8,19.8,46.2,30.7,74.2,30.7c28,0,54.4-10.9,74.2-30.7c19.8-19.8,30.7-46.2,30.7-74.2S396.7,70.4,376.9,50.6
	z M388.2,115.2l-45.2-41l-46.2,43.7l-24.3,22.8l0-34l36.9-35l27.5-26C364.6,57.8,384.8,84,388.2,115.2z M387.4,139.9
	c-1.6,9.2-4.7,17.8-9,25.8l-25.8-23.4v-34L387.4,139.9z M315.8,39.7L296.4,58l-23.9,22.7l0-36.6c9.4-3.5,19.6-5.5,30.3-5.5
	C307.1,38.7,311.5,39,315.8,39.7z M253.7,141.4l-35.7-32c1.7-9.3,4.9-18.2,9.4-26.2l26.3,23.6L253.7,141.4z M253.6,54.1l0,27.3
	l-15.3-13.7C242.8,62.5,247.9,58,253.6,54.1z M217,133.8l46.2,41.5l46.5-43.6l24-22.7v33.5l-65.1,61.5
	C240.7,191.8,220.3,165.3,217,133.8z M289.7,209.9l44-41.6v36.8c-9.6,3.7-20.1,5.8-31.1,5.8C298.3,210.9,293.9,210.5,289.7,209.9z
	 M352.6,194.9v-27.2l15,13.6C363.1,186.4,358.1,191,352.6,194.9z"/>
</svg>
