<?xml version="1.0" encoding="utf-8"?>
<!-- Generator: Adobe Illustrator 27.3.1, SVG Export Plug-In . SVG Version: 6.00 Build 0)  -->
<svg version="1.1" id="Layer_1" xmlns="http://www.w3.org/2000/svg" xmlns:xlink="http://www.w3.org/1999/xlink" x="0px" y="0px"
	 viewBox="0 0 768.44 247.91" style="enable-background:new 0 0 768.44 247.91;" xml:space="preserve">
<style type="text/css">
	.st0{fill:#FFFFFF;}
</style>
<g>
	<path class="st0" d="M81.91,83h28.77c16.73,0,30.46,8.31,30.46,27.46c0,19.15-13.84,27.59-30.46,27.59H98.76v26.87H81.91V83z
		 M110.2,123.23c8.31,0,13.6-3.73,13.6-12.77c0-9.15-5.53-12.64-13.6-12.64H98.76v25.4H110.2z"/>
	<path class="st0" d="M165.89,83h54.16v14.82h-37.31v18.78h32.87v14.45h-32.87v19.04h39.01v14.82h-55.85V83z"/>
	<path class="st0" d="M250.1,83h16.85v67.1h37.08v14.82H250.1V83z"/>
	<path class="st0" d="M322.84,123.95c0-24.21,18.78-42.04,42.37-42.04c23.59,0,42.36,17.83,42.36,42.04
		c0,24.21-18.77,42.04-42.36,42.04C341.62,166,322.84,148.16,322.84,123.95z M390.25,123.95c0-15.29-10.11-26.98-25.03-26.98
		c-14.93,0-25.04,11.69-25.04,26.98c0,15.3,10.11,26.99,25.04,26.99C380.14,150.94,390.25,139.25,390.25,123.95z"/>
	<path class="st0" d="M449.09,97.82h-23.35V83h63.56v14.82h-23.35v67.09h-16.86V97.82z"/>
	<path class="st0" d="M507.34,123.95c0-24.21,18.78-42.04,42.38-42.04c23.59,0,42.37,17.83,42.37,42.04
		c0,24.21-18.78,42.04-42.37,42.04C526.12,166,507.34,148.16,507.34,123.95z M574.75,123.95c0-15.29-10.11-26.98-25.04-26.98
		c-14.93,0-25.04,11.69-25.04,26.98c0,15.3,10.11,26.99,25.04,26.99C564.64,150.94,574.75,139.25,574.75,123.95z"/>
	<path class="st0" d="M643.56,126.84c-4.09-3.85-9.75-11.2-9.75-11.2s1.21,9.03,1.21,14.94v34.34h-15.77V82.27h1.68l41.29,38.8
		c3.97,3.73,9.63,11.19,9.63,11.19s-1.08-9.27-1.08-14.93V83h15.76v82.63h-1.67L643.56,126.84z"/>
</g>
</svg>
