<?xml version="1.0" encoding="UTF-8"?>
<svg id="Layer_1" data-name="Layer 1" xmlns="http://www.w3.org/2000/svg" viewBox="0 0 595.28 132.88">
  <defs>
    <style>
      .cls-1 {
        font-family: MyriadPro-Regular, 'Myriad Pro';
        font-size: 30.19px;
      }

      .cls-1, .cls-2 {
        fill: #fff;
      }

      .cls-2 {
        stroke-width: 0px;
      }
    </style>
  </defs>
  <path class="cls-2" d="m476.41,76.18c0,2.62,2.13,4.74,4.74,4.74s4.81-2.12,4.81-4.74-2.12-4.81-4.81-4.81-4.74,2.12-4.74,4.81m8.4,14.09h-7.23v37.4h7.23v-37.4ZM319.99,11.15c0,2.62,2.12,4.74,4.74,4.74s4.81-2.12,4.81-4.74-2.12-4.81-4.81-4.81-4.74,2.12-4.74,4.81m223.67,94.91c0-5.68,2.95-10.26,8.71-10.26,6.53,0,8.71,4.2,8.71,9.41v22.47h7.31v-23.71c0-8.32-4.43-14.77-13.37-14.77-4.35,0-8.79,1.79-11.51,6.45v-5.36h-7.15v37.4h7.31v-21.61Zm-32.5,16.25c-6.22,0-11.66-4.67-11.66-13.37s5.44-13.29,11.66-13.29,11.66,4.66,11.66,13.29-5.44,13.37-11.66,13.37m0-33.2c-11.2,0-19.13,8.47-19.13,19.83s7.93,19.9,19.13,19.9,19.13-8.47,19.13-19.9-7.93-19.83-19.13-19.83m-49.29-10.65h-6.69v6.06c0,3.27-1.71,5.75-5.75,5.75h-2.02v6.61h7.15v20.53c0,6.76,4.04,10.65,10.42,10.65,2.49,0,4.35-.47,4.98-.7v-6.22c-.62.16-1.94.31-2.88.31-3.81,0-5.21-1.71-5.21-5.13v-19.44h8.09v-6.61h-8.09v-11.82Zm-37.16,44.24c-3.73,0-6.06-2.64-6.06-5.44,0-3.34,2.33-5.13,5.44-5.6l11.43-1.71v1.71c0,8.16-4.82,11.04-10.81,11.04m-13.53-5.05c0,5.91,4.9,11.2,12.52,11.2,6.69,0,10.42-3.58,12.05-6.22,0,2.72.23,4.12.39,5.05h7.15c-.15-.93-.47-2.88-.47-6.14v-18.74c0-7.31-4.35-13.68-15.55-13.68-8.09,0-14.54,4.98-15.32,12.13l7,1.63c.47-4.35,3.34-7.54,8.47-7.54,5.68,0,8.09,3.03,8.09,6.69,0,1.32-.62,2.49-2.88,2.8l-10.11,1.48c-6.45.93-11.35,4.67-11.35,11.35m-2.18-27.37h-7.85l-10.73,28.84-10.65-28.84h-8.24l15.16,37.4h7.39l14.93-37.4Zm-57.22,32.03c-6.22,0-11.66-4.67-11.66-13.37s5.44-13.29,11.66-13.29,11.66,4.66,11.66,13.29-5.44,13.37-11.66,13.37m0-33.2c-11.2,0-19.13,8.47-19.13,19.83s7.93,19.9,19.13,19.9,19.13-8.47,19.13-19.9-7.93-19.83-19.13-19.83m-50.3,16.95c0-5.68,2.95-10.26,8.71-10.26,6.53,0,8.71,4.2,8.71,9.41v22.47h7.31v-23.71c0-8.32-4.43-14.77-13.37-14.77-4.35,0-8.78,1.79-11.51,6.45v-5.36h-7.15v37.4h7.31v-21.61Zm-40.82,0c0-5.68,2.95-10.26,8.71-10.26,6.53,0,8.71,4.2,8.71,9.41v22.47h7.31v-23.71c0-8.32-4.43-14.77-13.37-14.77-4.35,0-8.79,1.79-11.51,6.45v-5.36h-7.15v37.4h7.31v-21.61Zm-16.09-33.51h-7.77v55.12h7.77v-55.12Zm142.33-31.53c0-5.68,2.95-10.26,8.71-10.26,6.53,0,8.71,4.2,8.71,9.41v22.47h7.31v-23.71c0-8.32-4.43-14.77-13.37-14.77-4.35,0-8.78,1.79-11.51,6.45v-5.36h-7.15v37.4h7.31v-21.61Zm-32.17,16.25c-6.22,0-11.66-4.67-11.66-13.37s5.44-13.3,11.66-13.3,11.66,4.67,11.66,13.3-5.44,13.37-11.66,13.37m0-33.2c-11.2,0-19.13,8.47-19.13,19.83s7.93,19.9,19.13,19.9,19.13-8.48,19.13-19.9-7.93-19.83-19.13-19.83m-26.35,1.17h-7.23v37.4h7.23V25.23Zm-12.9-.39c-.39-.08-1.4-.23-2.41-.23-3.81,0-8.47,1.4-11.2,7.15v-6.53h-7.15v37.4h7.31v-18.74c0-8.24,4.12-11.51,10.26-11.51,1.01,0,2.1.08,3.19.23v-7.77Zm-74.4,10.18c0-14.38,9.64-21.69,19.9-21.69s19.9,7.31,19.9,21.69-9.64,21.77-19.9,21.77-19.9-7.39-19.9-21.77m-7.78,0c0,18.43,13.84,28.77,27.68,28.77s27.68-10.34,27.68-28.77-13.84-28.69-27.68-28.69-27.68,10.26-27.68,28.69"/>
  <polygon class="cls-2" points="206.94 6.73 172.89 6.73 131.19 127.72 165.31 127.72 206.94 6.73"/>
  <path class="cls-2" d="m75.27,129.96c-34.59,0-62.64-28.04-62.64-62.64S40.68,4.69,75.27,4.69s62.64,28.04,62.64,62.64-28.04,62.64-62.64,62.64m31.55-62.7c0-17.31-14.03-31.34-31.34-31.34s-31.34,14.03-31.34,31.34,14.03,31.34,31.34,31.34,31.34-14.03,31.34-31.34"/>
  <text class="cls-1" transform="translate(569.99 108.21)"><tspan x="0" y="0">®</tspan></text>
</svg>