<?xml version="1.0" encoding="UTF-8"?><svg id="Layer_1" xmlns="http://www.w3.org/2000/svg" viewBox="0 0 1589 788.8"><defs><style>.cls-1{fill:#fff;}.cls-2{fill:none;}</style></defs><g id="UNDER_PIN"><path class="cls-2" d="m394.4,31.2C193.9,31.2,31.3,193.8,31.3,394.3s162.6,363.1,363.1,363.1,363.1-162.6,363.1-363.1c0-200.5-162.6-363.1-363.1-363.1Z"/></g><g id="EA_PRIMARY"><polygon class="cls-1" points="789 49.3 882.8 211.3 977.2 49.3 789 49.3"/><path class="cls-1" d="m1300.2,343l-111.3,191.1-16.8-29,205.2-352.1h33.7l-93.9,161.1h118.4l153.5-264.8h-228.5c-41.7,0-66.2,38.8-66.2,38.8,0,0-218.5,375.2-218.7,375.2-11.2,22.6-11.2,59.4.2,80.6.2.4,113.2,195.3,113.2,195.3l229.8-396.4h-118.6v.2Z"/><path class="cls-1" d="m992,285.5h153.5l60.6-104.1h-153.6l16.9-29h153.6l60.1-103.1h-226.4c-43.2,0-68.5,39-68.5,39l-88.6,152,59.2,102.1,33.2-56.9Z"/><path class="cls-1" d="m272.4,471.6h-25.6v33.1h25.7c2.2,0,4-.8,5.4-2.5s2.1-3.7,2.1-6.3v-15.6c0-2.6-.7-4.6-2.1-6.3-1.4-1.6-3.3-2.4-5.5-2.4Z"/><path class="cls-1" d="m455.6,471.6h-24.7v30.5h24.7c2.2,0,4-.8,5.3-2.4,1.4-1.6,2-3.7,2-6.2v-13.2c0-2.5-.6-4.6-2-6.3-1.4-1.6-3.2-2.4-5.3-2.4Z"/><path class="cls-1" d="m362.7,471.6h-18.1c-2.4,0-4.2.8-5.6,2.5s-2,3.7-2,6.3v54.6c0,2.5.7,4.5,2,6.2,1.4,1.7,3.2,2.6,5.6,2.6h18.1c2.2,0,4-.9,5.4-2.6,1.5-1.7,2.2-3.7,2.2-6.2v-54.7c0-2.5-.7-4.6-2.2-6.3-1.4-1.6-3.2-2.4-5.4-2.4Z"/><path class="cls-1" d="m394.4,0C176.6,0,0,176.6,0,394.4s176.6,394.4,394.4,394.4,394.4-176.6,394.4-394.4S612.2,0,394.4,0Zm-147.4,182.5h202.7l-31.1,49.2-202.7.1,31.1-49.3Zm-41.1,355.7c0,6.3-2.2,11.7-6.5,16-4.4,4.4-9.8,6.7-16,6.7h-26.8c-6.3,0-11.7-2.1-15.9-6.4-4.3-4.2-6.4-9.5-6.4-15.9v-10.6h16.5l2.4,9.8c1.1,4,3.9,6.1,8.4,6.1h18.1c2.2,0,4.1-.8,5.5-2.5,1.3-1.6,2-3.8,2-6.2v-11.6c0-5.7-2.5-8.6-7.5-8.6h-22.7c-6.2,0-11.6-2.2-16.1-6.6-4.4-4.4-6.5-9.8-6.5-16.1v-15.4c0-6.2,2.2-11.5,6.5-15.9,4.5-4.4,9.9-6.6,16.1-6.6h26.4c6.2,0,11.5,2.1,15.8,6.3,4.3,4.3,6.4,9.5,6.4,15.9v9.6h-16.3l-2.5-8.7c-1.3-4.1-4.1-6.2-8.3-6.2h-17.8c-2.3,0-4.2.8-5.5,2.5-1.5,1.7-2.1,3.8-2.1,6.3v9c0,5.6,2.5,8.4,7.6,8.4h22.7c6.1,0,11.5,2.2,15.9,6.7s6.6,9.8,6.6,15.9v18.1Zm93-39c0,6.3-2.2,11.6-6.6,16-4.5,4.4-9.9,6.6-16.1,6.6h-29.4v39.1h-18.8v-106.5h48.2c6.2,0,11.6,2.2,16.1,6.6,4.4,4.4,6.6,9.7,6.6,15.8v22.4h0Zm90.2,38.8c0,6.5-2.1,11.8-6.7,16.2-4.5,4.4-9.7,6.7-16,6.7h-25.4c-6.3,0-11.7-2.2-16.1-6.7-4.4-4.4-6.7-9.7-6.7-16.2v-61.2c0-6.1,2.3-11.5,6.7-15.8,4.4-4.4,9.8-6.6,16.1-6.6h25.4c6.3,0,11.6,2.2,16,6.6,4.5,4.3,6.7,9.7,6.7,15.9v61.1Zm4.7-109l-256.8.1,62.4-98.7h-45.8l31.2-49.3h191l-31.2,49.3h-85.6l-31.6,49.4h137.8l126-199,156.9,248.2h-59.2l-31.2-49.3h-92.7l31.2-49.4h30.4l-35.4-56-97.4,154.7Zm72.3,131.9l-17.3-41.7h-17.9v41.7h-18.8v-106.5h47.1c6.3,0,11.7,2.2,16,6.6,4.4,4.4,6.6,9.7,6.6,15.8v18.6c0,4.8-1.3,9.2-4,13.1-2.8,3.8-6.3,6.6-10.4,8.4l18.7,44h-20Zm100.8-89.3h-27.3v89.3h-18.8v-89.3h-27.1v-17.2h73.3v17.2h-.1Zm85.4,66.6c0,6.3-2.2,11.7-6.6,16-4.5,4.4-9.8,6.7-16.1,6.7h-26.6c-6.4,0-11.6-2.1-15.9-6.4s-6.4-9.5-6.4-15.9v-10.6h16.4l2.5,9.8c1.2,4,3.9,6.1,8.4,6.1h18.1c2.3,0,4.2-.8,5.6-2.5,1.3-1.6,2-3.8,2-6.2v-11.6c0-5.7-2.5-8.6-7.6-8.6h-22.7c-6.3,0-11.7-2.2-16-6.6-4.4-4.4-6.7-9.8-6.7-16.1v-15.4c0-6.2,2.3-11.5,6.7-15.9,4.3-4.4,9.7-6.6,16-6.6h26.3c6.3,0,11.6,2.1,15.9,6.3,4.3,4.3,6.4,9.5,6.4,15.9v9.6h-16.4l-2.5-8.7c-1.3-4.1-4.1-6.2-8.3-6.2h-17.9c-2.3,0-4.2.8-5.5,2.5-1.4,1.7-2.1,3.8-2.1,6.3v9c0,5.6,2.6,8.4,7.6,8.4h22.7c6.2,0,11.5,2.2,15.9,6.7,4.6,4.5,6.8,9.8,6.8,15.9v18.1h0Zm11.5-78.6h-4v8.5h-2v-8.5h-4v-1.8h10v1.8Zm12,8.6v-6.4c0-.3,0-.6.1-1.1-.2.4-.2.8-.5,1.1l-3.3,5.1h-.3l-3.4-5.1c-.2-.3-.4-.7-.6-1,0,.4.2.8.2,1.1v6.4h-1.7v-10.3h1.7l4,6.2,4.1-6.2h1.6v10.3h-1.9v-.1Z"/></g></svg>